<svg viewBox="0 0 20 18" fill="none" xmlns="http://www.w3.org/2000/svg"><path d="M19.28 6.12c.54 1.65 1.05 4.02.43 6.12.17.04.29.2.28.38v4.12c0 .21-.15.38-.35.38h-.88c-.19 0-.35-.17-.35-.38v-.64h-.53v.64c0 .21-.16.38-.35.38h-1.15c-.19 0-.35-.17-.35-.38v-.64h-.51v.65c0 .21-.16.38-.36.38h-.44a.34.34 0 0 1-.21-.08c-.07-.05-1.64-1.31-4.13.22l-.05.03c-.63.22-1.27.38-1.93.49h-.06c-.19 0-.35-.17-.35-.38v-.34h-.52v.5c0 .2-.14.36-.33.38-.32.05-.61.05-.91.05-.2 0-.36-.18-.36-.39v-.54h-.52v.48a.4.4 0 0 1-.11.28.32.32 0 0 1-.27.1 7.24 7.24 0 0 1-.92-.12c-.18-.03-.3-.19-.3-.38v-.38h-.52v.09l-.02.11a.35.35 0 0 1-.43.27c-.92-.28-1.8-.69-2.61-1.22a.37.37 0 0 1-.17-.32v-2.78c-.01-1.08.42-3.22 3.74-4.41l.18-.06c.96-.32 1.9-.69 2.81-1.13.52-.25 1-.6 1.42-1.03v-.03l.03-.02c.28-.32.52-.68.69-1.08v-.06l.02-.03c.46-1.1.61-2.66.49-4.95v-.02c0-.21.16-.39.36-.38h8.72c.39 0 .71.34.71.76v3.18c0 .31-.18.59-.45.71a11.4 11.4 0 0 1 .56 1.47Zm-.84-5.35h-7.16v3.16h7.16v-3.16Zm-11.62 7.64v-.02c-.78.38-1.58.71-2.39 1 .52.78 1.32 2.56.65 5.44 3.64.26 7.96-.71 10.83-1.53a4.3 4.3 0 0 1-1.57-3.34c-.02-2.32 1.72-4.22 3.88-4.24h.14c-.17-.45-.33-.81-.42-1.01h-6.65c-.39 0-.71-.34-.71-.76v-3.17h-.47c.08 2.01-.09 3.48-.47 4.59.57.32 1.13.67 1.67 1.06.1-.05.2-.08.31-.08.38.01.68.34.68.75a.7.7 0 0 1-.69.73c-.38 0-.68-.34-.68-.74-.51-.38-1.04-.73-1.59-1.04-.13.26-.28.5-.45.72.37.37.7.77 1.02 1.19h.08c.08 0 .16.01.23.04.35.13.54.55.42.93-.13.38-.51.58-.87.45-.35-.13-.54-.55-.41-.93-.3-.4-.62-.77-.96-1.12-.28.26-.58.49-.89.68.28.27.53.58.76.91.35.03.62.35.62.73-.01.4-.31.73-.69.72-.37 0-.67-.33-.67-.73a.7.7 0 0 1 .1-.38 6.51 6.51 0 0 0-.81-.85Zm4.8-6.07c0-.61.46-1.11 1.03-1.11.57 0 1.03.5 1.03 1.11 0 .62-.46 1.11-1.03 1.11-.57 0-1.03-.49-1.03-1.11Zm.71 0c0 .19.14.35.32.35s.32-.16.32-.35c0-.19-.14-.35-.32-.35s-.32.16-.32.35Zm4.54 10.66c1.03-.29 1.77-.57 2.07-.67.69-1.9.22-4.21-.3-5.83l-.01-.01a3.18 3.18 0 0 0-3.24 1.92 3.55 3.55 0 0 0 1.48 4.59Zm-12.5 1.73c.73-3-.27-4.64-.65-5.12-2.77 1.07-3.05 2.83-3.02 3.64v.03l.02.26a8.55 8.55 0 0 0 3.65 1.19Zm14.75.99v.64h.16v-3.36c-.76.28-7.24 2.61-12.9 2.61-2.13 0-4.13-.33-5.68-1.21v1.37c.57.36 1.18.65 1.81.87.02-.19.17-.34.36-.33h1.23c.19 0 .35.17.35.38v.43l.18.02v-.45c0-.21.16-.38.36-.38h1.23c.2 0 .36.17.36.38v.53h.18v-.52c0-.21.16-.38.35-.38h1.23c.19 0 .35.17.35.38v.26c.46-.09.92-.22 1.36-.38 2.51-1.51 4.27-.56 4.75-.24v-.62c0-.21.16-.38.36-.38h1.22c.2 0 .36.17.36.38v.64h.43v-.64c0-.21.16-.38.36-.38h1.23c.2 0 .36.17.36.38Z" fill="#0266C1" fill-rule="evenodd"/></svg>
