<svg viewBox="0 0 25 20.901" fill="none" xmlns="http://www.w3.org/2000/svg"><path d="M24.1 7.11c.68 1.91 1.32 4.67.54 7.1.21.04.36.23.35.45v4.78c0 .25-.19.44-.44.44h-1.1a.44.44 0 0 1-.44-.44v-.74h-.66v.74c0 .25-.2.44-.44.44h-1.43a.43.43 0 0 1-.44-.44v-.74h-.64v.75c0 .24-.2.44-.44.44h-.55c-.1 0-.2-.03-.27-.09-.08-.06-2.05-1.52-5.16.25l-.07.03c-.79.26-1.59.45-2.4.58h-.08a.44.44 0 0 1-.44-.45v-.39h-.65v.58c0 .23-.18.42-.41.44-.4.06-.77.06-1.14.06a.45.45 0 0 1-.45-.45v-.63h-.65v.56c0 .13-.05.25-.14.33a.47.47 0 0 1-.34.12c-.38-.04-.76-.08-1.15-.15a.43.43 0 0 1-.37-.44v-.44h-.65v.1l-.02.13a.44.44 0 0 1-.55.31 12.92 12.92 0 0 1-3.26-1.41.44.44 0 0 1-.21-.38v-3.22c-.01-1.25.53-3.75 4.68-5.12l.23-.08c1.19-.36 2.36-.8 3.5-1.3.66-.3 1.26-.7 1.78-1.2v-.03l.04-.03c.35-.37.64-.79.86-1.25v-.07l.03-.04c.56-1.27.76-3.08.61-5.74v-.03c0-.25.2-.45.44-.44h10.91c.49 0 .88.39.88.88v3.7a.9.9 0 0 1-.55.82 17.59 17.59 0 0 1 .69 1.71Zm-1.05-6.22h-8.94v3.68h8.94v-3.68Zm-14.52 8.88v-.03c-.98.44-1.97.83-2.99 1.17.65.9 1.66 2.96.82 6.32 4.54.29 9.94-.83 13.53-1.78a4.87 4.87 0 0 1 2.88-8.8h.18c-.21-.53-.41-.94-.52-1.18h-8.32a.89.89 0 0 1-.89-.89v-3.67h-.58c.1 2.33-.11 4.04-.59 5.33.72.36 1.42.78 2.09 1.23a.86.86 0 0 1 1.24.77.86.86 0 0 1-1.72-.01c-.63-.44-1.3-.84-1.99-1.2-.16.3-.34.57-.56.83.46.43.88.89 1.27 1.39h.11c.1-.01.19.01.29.04a.85.85 0 1 1-.56 1.6.83.83 0 0 1-.52-1.08c-.37-.46-.77-.89-1.2-1.3-.35.3-.72.57-1.12.79.36.32.68.67.96 1.05.44.04.77.41.77.85 0 .47-.38.85-.85.85a.86.86 0 0 1-.73-1.3c-.3-.36-.63-.69-1-.98Zm5.99-7.05a1.3 1.3 0 1 1 1.29 1.29 1.3 1.3 0 0 1-1.29-1.29Zm.89 0c0 .22.18.4.4.4a.4.4 0 0 0 .41-.4.4.4 0 0 0-.41-.4.4.4 0 0 0-.4.4Zm5.68 12.38c1.29-.34 2.21-.66 2.59-.79.86-2.19.27-4.88-.38-6.76l-.01-.01a3.99 3.99 0 0 0-2.2 7.56Zm-15.63 2c.92-3.48-.33-5.38-.81-5.94-3.46 1.24-3.81 3.28-3.78 4.23v.03l.04.31c1.4.78 2.95 1.25 4.55 1.37Zm18.44 1.16v.74h.21l-.01-3.9c-.95.32-9.05 3.03-16.12 3.03-2.67 0-5.17-.38-7.11-1.41v1.59c.72.42 1.48.76 2.27 1.02.03-.23.22-.4.44-.4h1.54c.25 0 .45.2.45.45v.5l.22.03v-.53c0-.25.2-.45.45-.45h1.54c.24 0 .44.2.44.45v.62h.23v-.61c0-.24.2-.44.44-.44h1.53c.25 0 .45.2.45.44v.31c.57-.11 1.14-.26 1.7-.45 3.13-1.74 5.33-.65 5.93-.27v-.72c0-.25.2-.45.45-.45h1.53c.25 0 .44.2.44.45v.74h.55v-.74c0-.25.2-.45.44-.45h1.54c.25 0 .45.2.45.45Z" fill="#2D383F" fill-rule="evenodd"/></svg>