<svg viewBox="0 0 84 16" fill="none" xmlns="http://www.w3.org/2000/svg"><path d="m7.63 11.69 4.72 2.6-1.25-4.92 4.16-3.3-5.49-.44-2.14-4.63-2.14 4.63-5.49.44 4.16 3.3-1.25 4.92 4.72-2.6Zm17 0 4.72 2.6-1.25-4.92 4.16-3.3-5.49-.44-2.14-4.63-2.14 4.63-5.49.44 4.16 3.3-1.25 4.92 4.72-2.6Zm17 0 4.72 2.6-1.25-4.92 4.16-3.3-5.49-.44-2.14-4.63-2.14 4.63-5.49.44 4.16 3.3-1.25 4.92 4.72-2.6Zm17 0 4.72 2.6-1.25-4.92 4.16-3.3-5.49-.44-2.14-4.63-2.14 4.63-5.49.44 4.16 3.3-1.25 4.92 4.72-2.6Zm17 0 4.72 2.6-1.25-4.92 4.16-3.3-5.49-.44-2.14-4.63-2.14 4.63-5.49.44 4.16 3.3-1.25 4.92 4.72-2.6Z" fill="#FFF" fill-rule="evenodd"/></svg>