<svg viewBox="0 0 84 16" fill="none" xmlns="http://www.w3.org/2000/svg"><path d="m7.63 11.69 4.72 2.6-1.25-4.92 4.16-3.3-5.49-.44-2.14-4.63-2.15 4.63-5.48.44 4.16 3.3-1.25 4.92 4.72-2.6Zm17 0 4.72 2.6-1.25-4.92 4.16-3.3-5.49-.44-2.14-4.63-2.15 4.63-5.48.44 4.16 3.3-1.25 4.92 4.72-2.6Zm17 0 4.72 2.6-1.25-4.92 4.16-3.3-5.49-.44-2.14-4.63-2.15 4.63-5.48.44 4.16 3.3-1.25 4.92 4.72-2.6Zm17 0 4.72 2.6-1.25-4.92 4.16-3.3-5.49-.44-2.14-4.63-2.15 4.63-5.48.44 4.16 3.3-1.25 4.92 4.72-2.6Zm17-1.15 3.18 1.76-.84-3.31 2.68-2.13-3.54-.28-1.48-3.2-1.48 3.2-3.54.28 2.68 2.13-.84 3.31 3.18-1.76Zm-4.72 3.75 1.25-4.92-4.16-3.3 5.48-.44 2.15-4.63 2.14 4.63 5.49.44-4.16 3.3 1.25 4.92-4.72-2.6-4.72 2.6Z" fill="#FFF" fill-rule="evenodd"/></svg>