<svg viewBox="0 0 21 15" fill="none" xmlns="http://www.w3.org/2000/svg"><path d="M10.19 12.74c.13.58.21 1.17.24 1.75a10.13 10.13 0 0 1-7.76-3.63 9.4 9.4 0 0 1-2.17-5.62c1.46.01 2.92.33 4.27.95a9.77 9.77 0 0 1 5.42 6.55m.37 1.75a10.13 10.13 0 0 0 7.76-3.63 9.47 9.47 0 0 0 2.18-5.62c-1.47.01-2.93.33-4.28.95a9.77 9.77 0 0 0-5.42 6.55c-.13.58-.21 1.17-.24 1.75.85 0 1.69-.11 2.49-.32l-.01.02c-.81.2-1.64.31-2.49.31l-.12-.01a9.65 9.65 0 0 0-4.26-7.51l.12-.61a9.7 9.7 0 0 1 4.21-5.88 9.73 9.73 0 0 1 4.32 6.49 9.65 9.65 0 0 0-4.02 5.76" stroke="#0266C1" stroke-linejoin="round"/></svg>
