<svg viewBox="0 0 142 42" fill="none" xmlns="http://www.w3.org/2000/svg"><path d="m20.96 14.75 5.55-5.55 11.4 11.89 4.33 4.48c-.14.56-.28 1.16-.47 1.72a20.5 20.5 0 0 1-5.27 8.55 21.43 21.43 0 0 1-15.12 6.16c-5.7 0-11.07-2.18-15.12-6.16a20.56 20.56 0 0 1-6.26-14.84c0-5.65 2.21-10.88 6.26-14.85a21.34 21.34 0 0 1 15.12-6.15c5.7 0 11.07 2.17 15.12 6.15a20.65 20.65 0 0 1 6.12 17.11l-4.99-5.18a16.46 16.46 0 0 0-16.25-13.32 16.45 16.45 0 0 0-16.58 16.24c0 8.97 7.39 16.23 16.53 16.23 7.11 0 13.14-4.39 15.5-10.55l-10.32-10.08-1.88 1.85-3.67-3.7Zm89.09 9.88c-1.12 0-2.1-.21-2.94-.61a4.62 4.62 0 0 1-1.92-1.7 4.66 4.66 0 0 1-.67-2.5c0-1.25.29-2.37.87-3.37a6.32 6.32 0 0 1 2.47-2.34 7.59 7.59 0 0 1 3.6-.84c1.12 0 2.1.2 2.92.61a4.52 4.52 0 0 1 2.61 4.2c0 1.24-.3 2.37-.89 3.36-.58 1-1.4 1.78-2.46 2.34a7.52 7.52 0 0 1-3.59.85Zm-49.64-11.14h3.14l-1.71 8.47h5.3l-.51 2.45h-8.45l2.23-10.92Zm9.69 0h3.14l-2.22 10.92h-3.14l2.22-10.92Zm8.03 2.39-.49 2.4h4.91l-.49 2.38h-4.9l-.76 3.75h-3.14l2.22-10.92h8.7l-.49 2.39h-5.56Zm10.15 0-.37 1.84h4.94l-.46 2.3h-4.96l-.39 2h5.83l-.51 2.39h-8.91l2.22-10.92h8.7l-.49 2.39h-5.6Zm9.92.06h-3.41l.5-2.45h9.96l-.51 2.45h-3.39l-1.74 8.47h-3.14l1.73-8.47Zm24.69 8.69c-.96 0-1.79-.16-2.49-.47a3.7 3.7 0 0 1-1.61-1.37 3.88 3.88 0 0 1-.55-2.09c0-.34.04-.72.13-1.16l1.23-6.05h3.15l-1.22 6c-.07.32-.1.6-.1.86 0 1.15.61 1.72 1.84 1.72.67 0 1.19-.2 1.58-.6.39-.4.68-1.06.87-1.98l1.22-6h3.1l-1.26 6.19c-.67 3.3-2.64 4.95-5.89 4.95Zm18.52-7.66c0 1-.27 1.86-.81 2.59a4.61 4.61 0 0 1-2.27 1.57l1.89 3.28h-3.29l-1.65-2.9h-1.59l-.58 2.9h-3.15l2.22-10.92h4.75a5.3 5.3 0 0 1 3.31.92 3.07 3.07 0 0 1 1.17 2.56Zm-31.09 5.1a3.37 3.37 0 0 0 3.06-1.89c.29-.58.43-1.22.43-1.92 0-.74-.23-1.32-.7-1.76-.45-.45-1.09-.67-1.92-.67-.7 0-1.31.17-1.84.51q-.32.21-.58.48-.39.39-.64.91a4.15 4.15 0 0 0-.43 1.9c0 .74.23 1.34.68 1.78l.1.09q.69.57 1.84.57Zm27.92-4.81c0-.44-.16-.78-.47-.99-.3-.23-.73-.35-1.28-.35h-1.65l-.67 3.2h1.87q1.05 0 1.62-.48c.38-.33.58-.78.58-1.38Zm-118.75 6.09-3.76 3.89h-7.87l11.59-11.24 11.68 11.24h-7.35l-4.29-3.89Zm40.79 11.35c-.39 0-.73-.08-1.05-.25-.31-.17-.55-.4-.73-.69a1.98 1.98 0 0 1 0-1.98c.18-.29.42-.52.73-.69.32-.17.66-.25 1.05-.25.38 0 .72.08 1.03.25a1.86 1.86 0 0 1 .99 1.68 1.83 1.83 0 0 1-.99 1.68 2.1 2.1 0 0 1-1.03.25Zm0-.36a1.56 1.56 0 0 0 1.41-.76c.14-.24.21-.51.21-.81a1.54 1.54 0 0 0-1.62-1.57c-.31 0-.59.07-.84.2a1.54 1.54 0 0 0-.79 1.37c0 .3.07.57.21.81a1.56 1.56 0 0 0 1.42.76Zm21.42-1.16c.21.05.37.13.48.25a.62.62 0 0 1-.01.86c-.11.13-.27.24-.47.31a2.21 2.21 0 0 1-1.28.01c-.2-.06-.37-.15-.53-.26l.14-.29c.13.1.28.17.46.23.18.05.36.08.54.08.27 0 .48-.05.65-.15.18-.1.26-.23.26-.4 0-.16-.07-.27-.21-.36a1.14 1.14 0 0 0-.57-.13h-.5v-.28h.48a1 1 0 0 0 .52-.12c.13-.08.2-.19.2-.33 0-.15-.07-.27-.23-.36q-.22-.13-.58-.13c-.31 0-.62.08-.92.24l-.11-.3c.34-.18.7-.27 1.07-.27.22 0 .42.04.6.1a.9.9 0 0 1 .42.27.59.59 0 0 1 0 .78.9.9 0 0 1-.41.25Zm-17.02-1.39c.28 0 .52.07.74.19.22.12.4.29.52.51.13.22.19.47.19.75 0 .29-.06.54-.19.76a1.37 1.37 0 0 1-1.26.7c-.23 0-.45-.05-.64-.15a1.1 1.1 0 0 1-.46-.42v1.59h-.39v-3.9h.37v.56c.12-.19.27-.33.47-.43.19-.11.41-.16.65-.16Zm5.91 0c.38 0 .67.1.88.29.2.18.3.46.3.82v1.77h-.37v-.45a.86.86 0 0 1-.4.35 1.4 1.4 0 0 1-.6.13c-.33 0-.59-.08-.78-.23a.73.73 0 0 1-.29-.6c0-.25.09-.44.27-.59.18-.15.47-.22.86-.22h.92v-.18c0-.24-.07-.43-.21-.55a.88.88 0 0 0-.61-.2 1.51 1.51 0 0 0-.97.34l-.18-.29a2.06 2.06 0 0 1 1.18-.39Zm13.65 0c.38 0 .67.1.87.29.2.18.3.46.3.82v1.77h-.37v-.45a.89.89 0 0 1-.39.35c-.17.08-.38.13-.61.13a1.2 1.2 0 0 1-.77-.23.7.7 0 0 1-.29-.6c0-.25.09-.44.26-.59.18-.15.47-.22.86-.22h.92v-.18c0-.24-.07-.43-.21-.55-.14-.13-.34-.2-.61-.2a1.55 1.55 0 0 0-.97.34l-.17-.29c.14-.12.32-.22.53-.28.2-.07.42-.11.65-.11Zm19.51 2.91c-.28 0-.53-.07-.75-.19a1.45 1.45 0 0 1-.73-1.27c0-.28.07-.53.2-.75.13-.22.3-.39.53-.51a1.59 1.59 0 0 1 1.51 0c.23.12.4.29.53.51a1.55 1.55 0 0 1 0 1.5c-.13.22-.3.39-.53.52-.22.12-.48.19-.76.19Zm6.22 0a1.47 1.47 0 0 1-1.29-.71 1.44 1.44 0 0 1-.19-.75 1.37 1.37 0 0 1 .72-1.26 1.61 1.61 0 0 1 1.52 0c.22.12.4.29.52.51.13.22.19.47.19.75a1.44 1.44 0 0 1-.71 1.27c-.23.12-.48.19-.76.19Zm7.09 0c-.28 0-.53-.07-.75-.19a1.45 1.45 0 0 1-.73-1.27c0-.28.07-.53.2-.75.12-.22.3-.39.53-.51a1.59 1.59 0 0 1 1.51 0 1.45 1.45 0 0 1 .72 1.26 1.45 1.45 0 0 1-1.48 1.46Zm15.61 0c-.28 0-.53-.07-.75-.19a1.45 1.45 0 0 1-.73-1.27c0-.28.07-.53.2-.75.13-.22.3-.39.53-.51a1.59 1.59 0 0 1 1.51 0c.23.12.4.29.53.51.13.22.19.47.19.75s-.06.53-.19.75c-.13.22-.3.39-.53.52-.22.12-.48.19-.76.19Zm3.81-2.91c.28 0 .52.07.74.19.23.12.4.29.52.51q.03.03.04.07.15.31.15.68c0 .29-.06.54-.19.76a1.3 1.3 0 0 1-.52.52c-.21.12-.46.18-.74.18q-.34 0-.62-.14l-.02-.01a1.15 1.15 0 0 1-.46-.42v1.59h-.39v-3.9h.37v.56c.12-.19.28-.33.47-.43.19-.11.41-.16.65-.16Zm-67.45.37h-1.67v2.51h-.39v-2.85h2.06v.34Zm3.78-.34h.4v1.26h1.83v-1.26h.39v2.85h-.39v-1.26h-1.83v1.26h-.4v-2.85Zm3.73 0h.39v2.26l1.94-2.26h.35v2.85h-.39v-2.27l-1.93 2.27h-.36v-2.85Zm12.95 2.51v1.05h-.37v-.71h-2.66v-2.85h.39v2.51h1.77v-2.51h.4v2.51h.47Zm.74-2.51h.4v2.26l1.94-2.26h.34v2.85h-.39v-2.27l-1.93 2.27h-.36v-2.85Zm6.04 0v2.85h-.36v-.95h-1.02l-.68.95h-.42l.72-1c-.22-.06-.4-.17-.52-.31a.88.88 0 0 1-.18-.57c0-.32.11-.56.33-.73.22-.16.52-.24.91-.24h1.22Zm5.17 0v2.85h-.39v-2.51h-1.82v2.51h-.4v-2.85h2.61Zm6.34 2.85-.92-1.19-.93 1.19h-.44l1.15-1.47-1.09-1.38h.44l.87 1.11.87-1.11h.43l-1.09 1.38 1.16 1.47h-.45Zm7.32-.34v1.03h-.37v-.69h-2.6v.69h-.37v-1.03h.16c.2-.01.33-.15.4-.42s.12-.65.14-1.14l.04-.95h2.15v2.51h.45Zm6.13-1.14c.39.09.59.33.59.7a.7.7 0 0 1-.28.58c-.19.13-.47.2-.84.2h-1.32v-2.85h1.28c.33 0 .59.06.78.18.18.13.28.31.28.55 0 .15-.05.29-.13.4a.76.76 0 0 1-.36.24Zm4.8 0c.4.09.59.33.59.7 0 .25-.09.44-.28.58-.19.13-.47.2-.84.2h-1.32v-2.85h1.28c.34 0 .6.06.78.18.19.13.28.31.28.55 0 .15-.04.29-.13.4a.68.68 0 0 1-.36.24Zm5.01-1.03h-1.66v2.51h-.39v-2.85h2.05v.34Zm8.96.66c.36.01.64.09.83.24.19.16.29.38.29.68 0 .3-.11.53-.31.7-.21.16-.5.24-.89.23h-1.15v-2.85h.4v.99l.83.01Zm1.6-1h.4v2.85h-.4v-2.85Zm-21.84 1.26h.87a.9.9 0 0 0 .51-.12c.13-.08.19-.2.19-.36 0-.16-.06-.28-.19-.36a.9.9 0 0 0-.51-.12h-.87v.96Zm4.8 0h.88c.22 0 .39-.04.51-.12a.4.4 0 0 0 .18-.36.4.4 0 0 0-.18-.36.92.92 0 0 0-.51-.12h-.88v.96Zm-59.9 1.27q.23 0 .44-.08l.11-.05c.16-.1.29-.23.38-.4.1-.17.15-.36.15-.58q0-.3-.13-.54l-.02-.03c-.09-.17-.22-.3-.38-.4l-.14-.06q-.19-.08-.41-.08c-.21 0-.4.05-.56.14-.17.1-.29.23-.39.4-.09.16-.14.36-.14.57 0 .22.05.41.14.58.1.17.22.3.39.4.16.09.35.13.56.13Zm39.09 0c.21 0 .39-.04.56-.13a1.1 1.1 0 0 0 .52-.98c0-.21-.04-.41-.14-.58a.95.95 0 0 0-.38-.39 1.16 1.16 0 0 0-1.11 0 .98.98 0 0 0-.39.39l-.01.02q-.13.25-.13.56c0 .22.05.41.14.58.1.17.22.3.39.4.16.09.35.13.55.13Zm6.22 0a1 1 0 0 0 .94-.53c.09-.17.14-.36.14-.58 0-.21-.05-.41-.14-.58a.92.92 0 0 0-.39-.39 1.16 1.16 0 0 0-1.11 0c-.16.09-.29.22-.39.39-.09.17-.13.37-.13.58 0 .22.04.41.13.58.1.17.23.3.39.4.17.09.35.13.56.13Zm7.09 0q.28 0 .51-.11l.05-.02c.16-.1.29-.23.38-.4.09-.17.14-.36.14-.58 0-.21-.05-.41-.14-.58a.95.95 0 0 0-.38-.39l-.08-.04q-.22-.1-.48-.1c-.2 0-.39.05-.56.14a.95.95 0 0 0-.38.39c-.09.17-.14.37-.14.58 0 .22.05.41.14.58.09.17.22.3.38.4.17.09.36.13.56.13Zm15.61 0c.21 0 .4-.04.56-.13a1.1 1.1 0 0 0 .52-.98c0-.21-.04-.41-.14-.58a.95.95 0 0 0-.38-.39 1.13 1.13 0 0 0-.56-.14c-.2 0-.39.05-.55.14a.98.98 0 0 0-.39.39l-.01.01v.01q-.13.25-.13.56c0 .22.05.41.14.58.1.17.22.3.39.4.16.09.35.13.55.13Zm3.79 0c.2 0 .38-.04.55-.13.16-.1.29-.23.39-.4.09-.17.14-.36.14-.58 0-.21-.05-.41-.14-.57-.1-.17-.23-.3-.39-.4a1.15 1.15 0 0 0-1.11 0c-.16.1-.29.23-.39.4-.09.16-.14.36-.14.57 0 .22.05.41.14.58.1.17.23.3.39.4.17.09.35.13.56.13Zm-42.25-1.55c0 .43.27.64.82.64h.88v-1.28h-.85c-.57 0-.85.21-.85.64Zm18.61-.01c-.01.41-.05.74-.1 1.01-.05.26-.14.43-.28.53h1.81v-2.17h-1.39l-.04.63Zm27.08 1.59c.27 0 .47-.05.61-.16s.21-.27.21-.48q0-.24-.12-.38-.03-.05-.08-.09c-.14-.1-.35-.15-.62-.16l-.73-.01v1.27l.73.01Zm-69.44.01q.33 0 .57-.14c.15-.11.27-.25.35-.44v-.47h-.91c-.5 0-.75.18-.75.52 0 .16.07.29.19.39q.2.14.55.14Zm13.64 0q.33 0 .57-.14a.96.96 0 0 0 .35-.44v-.47h-.91c-.5 0-.75.18-.75.52 0 .16.07.29.2.39.13.09.31.14.54.14Zm36.58-.02c.25 0 .44-.04.56-.12.13-.08.19-.21.19-.38s-.06-.29-.17-.37c-.11-.09-.29-.13-.54-.13h-.96v1h.92Zm4.81 0c.25 0 .43-.04.56-.12.13-.08.19-.21.19-.38s-.06-.29-.17-.37c-.12-.09-.3-.13-.55-.13h-.96v1h.93Z" fill="#2D383F" fill-rule="evenodd"/></svg>