<svg viewBox="0 0 23.341 25" fill="none" xmlns="http://www.w3.org/2000/svg"><path d="M23.34 6.7v15.58c.01.21-.13.4-.33.46l-7.14 2.23c-.1.03-.2.03-.3 0l-7.96-2.85-6.99 2.7a.45.45 0 0 1-.62-.43v-15.6a.44.44 0 0 1 .29-.38l7.15-2.78.16-.04h.16l3.44 1.24a6.12 6.12 0 0 1-.35-1.74 5.1 5.1 0 0 1 10.18 0 5.97 5.97 0 0 1-.38 1.82l2.08-.65v-.03l.16-.02c.26.01.46.23.45.49Zm-3.23-1.61a4.17 4.17 0 0 0-8.34 0c0 1.79 2.72 6.79 4.17 9.26 1.45-2.45 4.17-7.45 4.17-9.26Zm-6.88 0a2.7 2.7 0 1 1 5.38 0 2.7 2.7 0 0 1-5.38 0Zm.95 0a1.76 1.76 0 1 0 3.51 0 1.77 1.77 0 1 0-3.53 0h.02Zm2.01 18.82 6.23-1.95v-6.07l-2.12.52a.2.2 0 0 1-.11 0 .46.46 0 1 1-.11-.92l2.34-.57-.01-7.59-2.17.68a65.25 65.25 0 0 1-3.91 7.51.43.43 0 0 1-.15.15.46.46 0 0 1-.64-.15 65.19 65.19 0 0 1-3.92-7.56l-3.55-1.27v1.4c0 .26-.21.47-.47.47a.47.47 0 0 1-.46-.47v-1.38l-6.22 2.4v6.45l1.95-.78a.46.46 0 0 1 .65.28c.07.24-.07.5-.31.57l-2.29.93v7.16l6.22-2.42v-2.97a.47.47 0 0 1 .93 0v2.97l7.19 2.57v-3.5a.47.47 0 0 1 .93 0v3.54Zm-6.33-9.95v.02l-2.24-.97a.43.43 0 0 0-.35 0l-1.9.76a.48.48 0 0 0-.26.61c.1.23.37.35.61.25l1.71-.69 2.06.87a.47.47 0 0 0 .66-.42.48.48 0 0 0-.29-.43Zm7.05 2.33c.23-.04.46.1.53.32.07.25-.07.5-.31.58l-1.3.32h-.11c-.06 0-.12-.02-.18-.04l-2.09-.93a.47.47 0 0 1-.24-.61c.1-.23.38-.34.61-.24l1.95.84 1.15-.28-.01.04Z" fill="#2D383F" fill-rule="evenodd"/></svg>
