<svg viewBox="0 0 16 16" fill="none" xmlns="http://www.w3.org/2000/svg"><path d="M15.62 9.1a.56.56 0 0 0-.47.1 6.15 6.15 0 0 1-3.89 1.44 6 6 0 0 1-6.01-6.03 6.15 6.15 0 0 1 1.31-3.76.54.54 0 0 0-.08-.74.58.58 0 0 0-.47-.1 8.18 8.18 0 0 0-3.64 13.6 8.03 8.03 0 0 0 10.73.64 8.06 8.06 0 0 0 2.86-4.49c.11-.31-.06-.6-.34-.66Zm-3.13 4.29a7.01 7.01 0 0 1-11.39-5.54 6.96 6.96 0 0 1 3.8-6.26c-.1.23-.2.45-.28.7a7.11 7.11 0 0 0 6.66 9.42c.86 0 1.68-.15 2.44-.43.26-.11.53-.21.77-.33a7.49 7.49 0 0 1-2 2.44Z" fill="#FFF" fill-rule="evenodd"/></svg>
