<svg viewBox="0 0 12 12" fill="none" xmlns="http://www.w3.org/2000/svg"><defs><clipPath id="a"><rect width="11" height="11" transform="translate(.5 .5)" fill="#fff" fill-opacity="0"/></clipPath></defs><g clip-path="url(#a)"><path d="M11.19 6.75a.38.38 0 0 0-.32.07 4.06 4.06 0 0 1-5.55-.22 4.14 4.14 0 0 1-.3-5.48.36.36 0 0 0-.06-.5.38.38 0 0 0-.32-.07 5.54 5.54 0 1 0 4.84 9.71 5.52 5.52 0 0 0 1.95-3.06c.07-.21-.04-.41-.24-.45Zm-2.13 2.92a4.72 4.72 0 0 1-6.36-.38 4.8 4.8 0 0 1 1.19-7.66l-.2.47a4.83 4.83 0 0 0 4.55 6.43 4.52 4.52 0 0 0 2.18-.52 5.07 5.07 0 0 1-1.36 1.66Z" fill="#FFF" fill-rule="evenodd"/></g></svg>
