<svg viewBox="0 0 25 24.703" fill="none" xmlns="http://www.w3.org/2000/svg"><path d="M23.69 2.24v.25a2.24 2.24 0 0 1 1.3 2 2.24 2.24 0 0 1-2.2 2.29h-3.34a2.68 2.68 0 0 1-.1-5.37 2.24 2.24 0 0 1 2.08-1.41 2.24 2.24 0 0 1 2.26 2.24Zm-16.08-.31a2.26 2.26 0 0 0-4.36.8v.25a2.26 2.26 0 0 0 .91 4.3l.03.01h3.33a2.68 2.68 0 1 0 .09-5.36Zm15.19 3.89a1.3 1.3 0 0 0 .25-2.57l-.06-.01a.49.49 0 0 1-.3-.61.73.73 0 0 0 .06-.21 1.3 1.3 0 0 0-2.56-.43.46.46 0 0 1-.51.37h-.22a1.73 1.73 0 0 0 0 3.46h3.34Zm-15.25.53h-3.34a1.29 1.29 0 0 1-1.42-1.15 1.29 1.29 0 0 1 1.16-1.43c.25-.05.42-.3.37-.56l-.02-.06a1.3 1.3 0 1 1 2.51-.64c.04.25.28.42.53.39a.74.74 0 0 1 .21 0 1.72 1.72 0 1 1 0 3.45Zm15.86 17.68-7.86-18.28a.47.47 0 0 0-.87 0l-4.75 11.01-2.93-6.76a.47.47 0 0 0-.62-.25.5.5 0 0 0-.25.25l-2.76 6.36-3.33 7.67c-.11.24 0 .52.24.63.06.02.13.04.19.04h22.5c.26 0 .48-.22.48-.48a.43.43 0 0 0-.04-.19Zm-8.3-16.89 3.1 7.2h-1.09l-1.97-2.17a.47.47 0 0 0-.67-.03.65.65 0 0 0-.08.09l-.74 1.14h-1.23l2.68-6.23Zm-8.54 4.24 2.44 5.66h-1.33a.46.46 0 0 0-.4.22l-.48.75-1.23-1.73a.48.48 0 0 0-.39-.21h-.64l2.03-4.69Zm6.38 12.36-2.5-5.77 1.57-3.65h1.91c.16 0 .31-.08.4-.22l.53-.81 1.69 1.86c.09.1.22.16.35.16h1.71l3.63 8.45-9.29-.02Zm-11.73 0 2.91-6.71h.8l1.49 2.12c.09.13.23.2.39.2s.3-.08.39-.21l.73-1.14h1.49l2.49 5.72-10.69.02Z" fill="#2D383F" fill-rule="evenodd"/></svg>
