<svg viewBox="0 0 9 16" fill="none" xmlns="http://www.w3.org/2000/svg"><path d="M4.5 2.41c.91 0 1.66.77 1.66 1.72 0 .94-.75 1.7-1.66 1.7-.92 0-1.67-.76-1.67-1.7 0-.95.75-1.72 1.67-1.72Zm0 5.84a4.07 4.07 0 0 0 4.01-4.12c0-2.28-1.8-4.13-4.01-4.13a4.07 4.07 0 0 0-4.01 4.13 4.07 4.07 0 0 0 4.01 4.12Zm1.62 3.37c.81-.19 1.6-.52 2.33-.99.54-.36.71-1.1.36-1.67a1.15 1.15 0 0 0-1.62-.38 4.98 4.98 0 0 1-5.4 0 1.14 1.14 0 0 0-1.61.38c-.35.57-.18 1.31.36 1.67.73.47 1.52.8 2.33.99l-2.24 2.31a1.23 1.23 0 0 0 0 1.71c.23.23.53.35.83.35.3 0 .6-.12.83-.35l2.21-2.27 2.2 2.27c.46.47 1.2.47 1.66 0 .46-.47.46-1.24 0-1.71l-2.24-2.31Z" fill="#2D383F" fill-rule="evenodd"/></svg>
