<svg viewBox="0 0 21 21" fill="none" xmlns="http://www.w3.org/2000/svg"><path d="M17.64 8.26h-5.36a3.04 3.04 0 0 0-3.03 3.06 3.04 3.04 0 0 0 3.03 3.06h2.32a3.05 3.05 0 0 1 3.04 3.06 3.05 3.05 0 0 1-3.04 3.06h-11.25m0-7.95a2.86 2.86 0 0 0-2.85 2.88v.1a3 3 0 0 0 .56 1.76l2.29 3.16h.01l2.28-3.16a3 3 0 0 0 .57-1.76v-.1a2.87 2.87 0 0 0-2.86-2.88Zm.57 1.7a1.26 1.26 0 0 1 .44 1.94c-.24.3-.61.47-.99.47h-.03c-.39 0-.75-.17-.99-.47-.25-.3-.34-.71-.25-1.09.08-.37.34-.69.68-.85l.02-.01c.35-.17.75-.17 1.1 0l.02.01Zm13.72-13.75a2.88 2.88 0 0 0-2.86 2.89c0 .63.2 1.24.57 1.74l2.28 3.09h.01l2.28-3.09a2.88 2.88 0 0 0-2.28-4.63Zm.58 1.66c.34.16.58.47.67.83.09.37 0 .77-.25 1.06l-.01.01c-.24.29-.59.46-.96.46h-.07c-.37 0-.72-.17-.96-.46l-.01-.01a1.26 1.26 0 0 1-.25-1.06c.09-.36.34-.67.67-.83l.04-.01a1.3 1.3 0 0 1 1.09 0l.04.01Z" stroke="#0266C1" stroke-linecap="round"/></svg>
