<svg viewBox="0 0 24.654 24.654" fill="none" xmlns="http://www.w3.org/2000/svg"><path d="M19.1 23.99a22.15 22.15 0 0 1-12.22-6.25 22.39 22.39 0 0 1-6.23-12.27l-.14-1.07a2.02 2.02 0 0 1 1.11-2l3.26-1.66c1.25-.64 2.78.11 3.22 1.45a21.52 21.52 0 0 0 1.53 3.57c.49.9.16 2.06-.77 2.48a2.14 2.14 0 0 0-.62 3.45l4.67 4.69a2.11 2.11 0 0 0 3.43-.63 1.9 1.9 0 0 1 2.61-.85l.7.35c.9.42 1.82.78 2.76 1.07 1.37.43 2.14 1.97 1.49 3.25l-1.74 3.44a2 2 0 0 1-1.99 1.12c-.36-.04-.71-.08-1.07-.14Z" stroke="#2D383F" stroke-linejoin="round"/></svg>
