<svg viewBox="0 0 14 15" fill="none" xmlns="http://www.w3.org/2000/svg"><path d="M8.36 0c-.45 0-.87.24-1.14.59-.27.35-.42.78-.53 1.23-.17.73-.23 1.54-.24 2.26-1.26.09-2.4.5-3.35 1.11a1.96 1.96 0 0 0-1.3-.53c-.5 0-.98.24-1.34.72-.68.92-.61 2.42.19 3.31a4.6 4.6 0 0 0-.09.84c0 3.02 2.88 5.47 6.44 5.47 3.55 0 6.43-2.45 6.43-5.47 0-.29-.04-.57-.09-.84.8-.89.87-2.39.19-3.31a1.67 1.67 0 0 0-1.34-.72c-.45-.01-.91.19-1.3.53a7.16 7.16 0 0 0-3.33-1.11c.01-.67.06-1.36.18-1.89.08-.32.18-.56.28-.69.1-.14.17-.19.34-.19.36 0 .41.13.63.43.11.16.23.35.44.54.2.18.51.34.83.34v-1.31c-.09 0-.11 0-.17-.06-.06-.06-.14-.2-.27-.37-.25-.35-.74-.88-1.46-.88Zm3.54.12c-.85 0-1.53.83-1.53 1.85s.68 1.85 1.53 1.85c.84 0 1.53-.83 1.53-1.85s-.69-1.85-1.53-1.85Zm0 .66c.54 0 .98.53.98 1.19 0 .65-.44 1.19-.98 1.19-.55 0-.99-.54-.99-1.19 0-.66.44-1.19.99-1.19Zm-4.9 4.33c3.01 0 5.56 2.03 5.56 4.42s-2.55 4.42-5.56 4.42c-3.02 0-5.57-2.03-5.57-4.42s2.55-4.42 5.57-4.42Zm-5.18.6c.15 0 .31.04.46.12-.55.5-.98 1.08-1.28 1.73-.2-.51-.15-1.15.11-1.48a.82.82 0 0 1 .71-.37Zm10.35 0c.28-.01.53.12.71.37.26.33.31.97.11 1.48a5.37 5.37 0 0 0-1.28-1.73.99.99 0 0 1 .46-.12Zm-7.35 1.64c-.55 0-.99.54-.99 1.19 0 .66.44 1.19.99 1.19.54 0 .98-.53.98-1.19 0-.65-.44-1.19-.98-1.19Zm4.35 0c-.54 0-.98.54-.98 1.19 0 .66.44 1.19.98 1.19.55 0 .99-.53.99-1.19 0-.65-.44-1.19-.99-1.19Zm-4.88 4.05a3.02 3.02 0 0 0 5.43 0c-.63.49-1.62.82-2.72.82a4.48 4.48 0 0 1-2.71-.82Z" fill="#2D383F" fill-rule="evenodd"/></svg>
