<svg viewBox="0 0 20 20" fill="none" xmlns="http://www.w3.org/2000/svg"><path d="M10 0a.69.69 0 0 0-.69.68v2.04c0 .37.31.69.69.69a.7.7 0 0 0 .68-.69v-2.04a.69.69 0 0 0-.68-.68Zm-4.69 4.39-1.45-1.46a.68.68 0 0 0-1.15.48c0 .17.06.34.2.47l1.45 1.46a.68.68 0 0 0 1.15-.48.67.67 0 0 0-.2-.47Zm11.77-1.46a.68.68 0 0 0-.95 0l-1.45 1.46a.67.67 0 0 0 0 .95c.24.26.69.26.95 0l1.45-1.46c.14-.13.2-.3.2-.47a.65.65 0 0 0-.2-.48Zm-3.54 3.52a5.04 5.04 0 0 0-3.54-1.48 5.04 5.04 0 0 0-5.03 5.03 5.04 5.04 0 0 0 8.57 3.54c.9-.9 1.48-2.17 1.48-3.54 0-1.38-.55-2.65-1.48-3.55Zm-.95 6.14a3.67 3.67 0 0 1-2.59 1.06c-1.01 0-1.94-.4-2.6-1.06a3.67 3.67 0 0 1-1.06-2.59c0-1.01.4-1.94 1.06-2.6a3.67 3.67 0 0 1 2.6-1.06c1 0 1.93.4 2.59 1.06a3.67 3.67 0 0 1 1.06 2.6c0 1-.4 1.93-1.06 2.59Zm-9.87-3.28h-2.04a.69.69 0 0 0-.68.69c0 .37.29.68.68.68h2.04a.7.7 0 0 0 .69-.68.7.7 0 0 0-.69-.69Zm16.59 0h-2.04a.7.7 0 0 0-.69.69c0 .37.32.68.69.68h2.04a.7.7 0 0 0 .69-.68.7.7 0 0 0-.69-.69Zm-14 5.34c-.24-.26-.69-.26-.95 0l-1.45 1.46c-.14.13-.2.3-.2.47a.68.68 0 0 0 1.15.48l1.45-1.46a.67.67 0 0 0 0-.95Zm11.75 1.46-1.46-1.46c-.23-.26-.68-.26-.95 0a.67.67 0 0 0 0 .95l1.46 1.46a.68.68 0 0 0 1.15-.48.67.67 0 0 0-.2-.47Zm-7.06.47a.7.7 0 0 0-.69.69v2.04c0 .37.31.69.69.69a.7.7 0 0 0 .68-.69v-2.04a.7.7 0 0 0-.68-.69Z" fill="#FFF" fill-rule="evenodd"/></svg>
