<svg viewBox="0 0 24.434 25" fill="none" xmlns="http://www.w3.org/2000/svg"><path d="m24.3 18.08-4.9-5.62h2.37a.5.5 0 0 0 .5-.5.48.48 0 0 0-.11-.3l-3.94-5.18h2.01a.5.5 0 0 0 .5-.5.46.46 0 0 0-.13-.33l-4.82-5.49a.5.5 0 0 0-.7-.04l-.05.04-4.82 5.48a.5.5 0 0 0 .03.71c.09.08.22.13.34.13h2.03l-1.21 1.58-3.25-3.69a.5.5 0 0 0-.71-.04l-.04.04-4.13 4.69a.5.5 0 0 0 .05.7.5.5 0 0 0 .33.13h1.59l-3.3 4.31a.5.5 0 0 0 .11.7c.08.07.18.1.29.1h1.85l-4.07 4.69a.5.5 0 0 0 .37.82h5.54v3.51c0 .54.44.98.98.98h1.53c.53 0 .97-.44.97-.97v-3.52h4.16v3.51c0 .54.44.98.98.98h1.52c.54 0 .98-.44.98-.98v-5.11h6.78a.5.5 0 0 0 .5-.5.5.5 0 0 0-.13-.33Zm-15.79 5.91-1.47.03-.03-3.51h1.5v3.48Zm5.16-4.48h-12.08l4.1-4.67a.5.5 0 0 0-.03-.71.47.47 0 0 0-.35-.13h-1.96l3.3-4.32a.5.5 0 0 0-.39-.8h-1.51l3.01-3.43 3.01 3.42-2.12 2.79a.5.5 0 0 0 .09.71c.09.06.2.1.31.1h2.37l-4.9 5.61a.5.5 0 0 0 .04.71c.09.08.21.12.33.13h6.78v.59Zm2.47 4.47-1.46.04-.03-5.11h1.5l-.01 5.07Zm.03-6.07h-8.18l4.91-5.62a.5.5 0 0 0-.04-.7.53.53 0 0 0-.33-.13h-2.47l3.96-5.18a.49.49 0 0 0-.1-.7.45.45 0 0 0-.29-.1h-1.92l3.72-4.22 3.7 4.22h-1.94a.5.5 0 0 0-.5.5c0 .11.04.22.11.3l3.93 5.18h-2.44a.5.5 0 0 0-.5.5c0 .13.04.24.12.33l4.91 5.62h-6.65Z" fill="#2D383F" fill-rule="evenodd"/></svg>