<svg viewBox="0 0 16 9" fill="none" xmlns="http://www.w3.org/2000/svg"><path d="M15.85 8.02c-.04-.07-.31-.64-1.59-1.81-1.34-1.23-1.16-1.03.46-3.15.98-1.29 1.37-2.08 1.25-2.42-.12-.32-.84-.23-.84-.23l-2.4.01s-.18-.02-.32.06c-.12.07-.21.25-.21.25s-.38 1-.89 1.85c-1.07 1.79-1.5 1.89-1.67 1.78-.41-.26-.31-1.05-.31-1.6 0-1.74.27-2.47-.52-2.65-.26-.06-.45-.11-1.12-.11-.86-.01-1.59 0-2 .2-.27.13-.48.42-.35.44.16.02.52.1.71.35.24.33.24 1.08.24 1.08s.14 2.04-.34 2.3c-.32.17-.77-.18-1.72-1.81-.49-.83-.86-1.76-.86-1.76s-.07-.17-.2-.26a1.04 1.04 0 0 0-.37-.15l-2.28.02s-.35.01-.47.15c-.11.14-.01.41-.01.41s1.79 4.12 3.81 6.2c1.86 1.91 3.97 1.79 3.97 1.79h.96s.29-.03.44-.19c.13-.15.13-.42.13-.42s-.02-1.26.57-1.45c.59-.18 1.35 1.23 2.14 1.77.61.41 1.07.32 1.07.32l2.13-.03s1.12-.07.59-.94Z" fill="#2D383F" fill-rule="evenodd"/></svg>
