<svg viewBox="0 0 43 42" fill="none" xmlns="http://www.w3.org/2000/svg"><defs><clipPath id="a"><rect rx="-.5" width="42" height="41" transform="translate(.5 .5)" fill="#fff" fill-opacity="0"/></clipPath></defs><rect rx="-.5" width="42" height="41" transform="translate(.5 .5)" fill="#FFF"/><g clip-path="url(#a)" fill="#2D383F" fill-rule="evenodd"><path d="m15.73 27.24 3.76-3.89 4.29 3.89h7.35l-11.68-11.24-11.59 11.24h7.87Z"/><path d="m26.51 9.2-5.55 5.55 3.67 3.7 1.88-1.85 10.32 10.08a16.54 16.54 0 0 1-15.5 10.55c-9.14 0-16.53-7.26-16.53-16.23a16.45 16.45 0 0 1 16.58-16.24c8.1 0 14.88 5.78 16.25 13.32l4.99 5.18a20.67 20.67 0 0 0-6.12-17.11 21.42 21.42 0 0 0-15.12-6.15 21.34 21.34 0 0 0-15.12 6.15 20.58 20.58 0 0 0-6.26 14.85c0 5.64 2.21 10.87 6.26 14.84a21.43 21.43 0 0 0 15.12 6.16c5.7 0 11.07-2.18 15.12-6.16a20.5 20.5 0 0 0 5.27-8.55c.19-.56.33-1.16.47-1.72l-4.33-4.48-11.4-11.89Z"/></g></svg>