<svg xmlns="http://www.w3.org/2000/svg" xmlns:xlink="http://www.w3.org/1999/xlink"><symbol id="sprite-arrow-small" fill="none" viewBox="0 0 8.121 13.414"><path stroke="#2D383F" stroke-width="2" d="m.7 12.7 6-6-6-6"/></symbol><use xlink:href="#sprite-arrow-small" width="8.121" height="13.414"/><view id="sprite-arrow-small-view" viewBox="0 0 8.121 13.414"/><symbol id="sprite-arrow" fill="none" viewBox="0 0 13.502 6.661"><path fill="#FFF" fill-rule="evenodd" d="m11.79 2.83-1.98-1.98a.5.5 0 0 1 0-.71c.2-.19.51-.19.71 0l2.83 2.83c.2.2.2.51 0 .71l-2.83 2.83a.5.5 0 0 1-.71 0 .5.5 0 0 1 0-.71l1.98-1.97h-11.79v-1z"/></symbol><use xlink:href="#sprite-arrow" width="13.502" height="6.661" y="13.414"/><view id="sprite-arrow-view" viewBox="0 13.414 13.502 6.661"/><symbol id="sprite-boots-advantages" fill="none" viewBox="0 0 20 18"><path fill="#0266C1" fill-rule="evenodd" d="M19.28 6.12c.54 1.65 1.05 4.02.43 6.12.17.04.29.2.28.38v4.12c0 .21-.15.38-.35.38h-.88c-.19 0-.35-.17-.35-.38v-.64h-.53v.64c0 .21-.16.38-.35.38h-1.15c-.19 0-.35-.17-.35-.38v-.64h-.51v.65c0 .21-.16.38-.36.38h-.44a.3.3 0 0 1-.21-.08c-.07-.05-1.64-1.31-4.13.22l-.05.03q-.94.33-1.93.49h-.06c-.19 0-.35-.17-.35-.38v-.34h-.52v.5c0 .2-.14.36-.33.38q-.47.06-.91.05c-.2 0-.36-.18-.36-.39v-.54h-.52v.48a.4.4 0 0 1-.11.28.3.3 0 0 1-.27.1 7 7 0 0 1-.92-.12c-.18-.03-.3-.19-.3-.38v-.38h-.52v.09l-.02.11a.35.35 0 0 1-.43.27q-1.39-.42-2.61-1.22a.4.4 0 0 1-.17-.32v-2.78c-.01-1.08.42-3.22 3.74-4.41l.18-.06q1.44-.47 2.81-1.13.79-.38 1.42-1.03v-.03l.03-.02q.43-.48.69-1.08v-.06l.02-.03c.46-1.1.61-2.66.49-4.95v-.02c0-.21.16-.39.36-.38h8.72c.39 0 .71.34.71.76v3.18c0 .31-.18.59-.45.71a11 11 0 0 1 .56 1.47m-.84-5.35h-7.16v3.16h7.16zm-11.62 7.64v-.02q-1.17.57-2.39 1c.52.78 1.32 2.56.65 5.44 3.64.26 7.96-.71 10.83-1.53a4.3 4.3 0 0 1-1.57-3.34c-.02-2.32 1.72-4.22 3.88-4.24h.14q-.27-.7-.42-1.01h-6.65c-.39 0-.71-.34-.71-.76v-3.17h-.47c.08 2.01-.09 3.48-.47 4.59q.86.48 1.67 1.06.15-.08.31-.08c.38.01.68.34.68.75a.7.7 0 0 1-.69.73c-.38 0-.68-.34-.68-.74q-.77-.57-1.59-1.04-.2.39-.45.72.55.56 1.02 1.19h.08q.12 0 .23.04c.35.13.54.55.42.93s-.51.58-.87.45c-.35-.13-.54-.55-.41-.93q-.45-.6-.96-1.12-.42.4-.89.68.42.41.76.91c.35.03.62.35.62.73-.01.4-.31.73-.69.72-.37 0-.67-.33-.67-.73a1 1 0 0 1 .1-.38 7 7 0 0 0-.81-.85m4.8-6.07c0-.61.46-1.11 1.03-1.11s1.03.5 1.03 1.11-.46 1.11-1.03 1.11-1.03-.49-1.03-1.11m.71 0c0 .19.14.35.32.35s.32-.16.32-.35-.14-.35-.32-.35-.32.16-.32.35m4.54 10.66c1.03-.29 1.77-.57 2.07-.67.69-1.9.22-4.21-.3-5.83l-.01-.01a3.2 3.2 0 0 0-3.24 1.92 3.55 3.55 0 0 0 1.48 4.59m-12.5 1.73c.73-3-.27-4.64-.65-5.12-2.77 1.07-3.05 2.83-3.02 3.64v.03l.02.26a9 9 0 0 0 3.65 1.19m14.75.99v.64h.16v-3.36c-.76.28-7.24 2.61-12.9 2.61-2.13 0-4.13-.33-5.68-1.21v1.37q.86.54 1.81.87c.02-.19.17-.34.36-.33h1.23c.19 0 .35.17.35.38v.43l.18.02v-.45c0-.21.16-.38.36-.38h1.23c.2 0 .36.17.36.38v.53h.18v-.52c0-.21.16-.38.35-.38h1.23c.19 0 .35.17.35.38v.26q.7-.14 1.36-.38c2.51-1.51 4.27-.56 4.75-.24v-.62c0-.21.16-.38.36-.38h1.22c.2 0 .36.17.36.38v.64h.43v-.64c0-.21.16-.38.36-.38h1.23c.2 0 .36.17.36.38"/></symbol><use xlink:href="#sprite-boots-advantages" width="20" height="18" y="20.075"/><view id="sprite-boots-advantages-view" viewBox="0 20.075 20 18"/><symbol id="sprite-boots" fill="none" viewBox="0 0 25 20.901"><path fill="#2D383F" fill-rule="evenodd" d="M24.1 7.11c.68 1.91 1.32 4.67.54 7.1.21.04.36.23.35.45v4.78c0 .25-.19.44-.44.44h-1.1a.44.44 0 0 1-.44-.44v-.74h-.66v.74c0 .25-.2.44-.44.44h-1.43a.43.43 0 0 1-.44-.44v-.74h-.64v.75c0 .24-.2.44-.44.44h-.55q-.16 0-.27-.09c-.08-.06-2.05-1.52-5.16.25l-.07.03q-1.18.39-2.4.58h-.08a.44.44 0 0 1-.44-.45v-.39h-.65v.58c0 .23-.18.42-.41.44q-.6.07-1.14.06a.45.45 0 0 1-.45-.45v-.63h-.65v.56q0 .2-.14.33a.5.5 0 0 1-.34.12q-.57-.05-1.15-.15a.43.43 0 0 1-.37-.44v-.44h-.65v.1l-.02.13a.44.44 0 0 1-.55.31 13 13 0 0 1-3.26-1.41.4.4 0 0 1-.21-.38v-3.22c-.01-1.25.53-3.75 4.68-5.12l.23-.08q1.79-.54 3.5-1.3 1-.45 1.78-1.2v-.03l.04-.03q.53-.56.86-1.25v-.07l.03-.04c.56-1.27.76-3.08.61-5.74v-.03c0-.25.2-.45.44-.44h10.91c.49 0 .88.39.88.88v3.7a.9.9 0 0 1-.55.82 18 18 0 0 1 .69 1.71m-1.05-6.22h-8.94v3.68h8.94zm-14.52 8.88v-.03q-1.46.66-2.99 1.17c.65.9 1.66 2.96.82 6.32 4.54.29 9.94-.83 13.53-1.78a4.87 4.87 0 0 1 2.88-8.8h.18q-.33-.8-.52-1.18h-8.32a.9.9 0 0 1-.89-.89v-3.67h-.58c.1 2.33-.11 4.04-.59 5.33q1.08.55 2.09 1.23a.86.86 0 0 1 1.24.77.86.86 0 0 1-1.72-.01q-.95-.66-1.99-1.2-.23.45-.56.83.69.64 1.27 1.39h.11q.15-.01.29.04a.85.85 0 1 1-.56 1.6.83.83 0 0 1-.52-1.08q-.55-.69-1.2-1.3-.52.46-1.12.79.54.48.96 1.05c.44.04.77.41.77.85 0 .47-.38.85-.85.85a.86.86 0 0 1-.73-1.3q-.45-.54-1-.98m5.99-7.05a1.3 1.3 0 1 1 1.29 1.29 1.3 1.3 0 0 1-1.29-1.29m.89 0c0 .22.18.4.4.4a.4.4 0 0 0 .41-.4.4.4 0 0 0-.41-.4.4.4 0 0 0-.4.4m5.68 12.38c1.29-.34 2.21-.66 2.59-.79.86-2.19.27-4.88-.38-6.76l-.01-.01a3.99 3.99 0 0 0-2.2 7.56m-15.63 2c.92-3.48-.33-5.38-.81-5.94-3.46 1.24-3.81 3.28-3.78 4.23v.03l.04.31c1.4.78 2.95 1.25 4.55 1.37m18.44 1.16v.74h.21l-.01-3.9c-.95.32-9.05 3.03-16.12 3.03-2.67 0-5.17-.38-7.11-1.41v1.59q1.08.63 2.27 1.02c.03-.23.22-.4.44-.4h1.54c.25 0 .45.2.45.45v.5l.22.03v-.53c0-.25.2-.45.45-.45h1.54c.24 0 .44.2.44.45v.62h.23v-.61c0-.24.2-.44.44-.44h1.53c.25 0 .45.2.45.44v.31q.86-.17 1.7-.45c3.13-1.74 5.33-.65 5.93-.27v-.72c0-.25.2-.45.45-.45h1.53c.25 0 .44.2.44.45v.74h.55v-.74c0-.25.2-.45.44-.45h1.54c.25 0 .45.2.45.45"/></symbol><use xlink:href="#sprite-boots" width="25" height="20.901" y="38.075"/><view id="sprite-boots-view" viewBox="0 38.075 25 20.901"/><symbol id="sprite-cross" fill="none" viewBox="0 0 24 24"><path stroke="#fff" stroke-width="2" d="m1.36 1.36 10.64 10.64m10.64 10.64-10.64-10.64m0 0 10.64-10.64-21.28 21.28"/></symbol><use xlink:href="#sprite-cross" width="24" height="24" y="58.976"/><view id="sprite-cross-view" viewBox="0 58.976 24 24"/><symbol id="sprite-crown" fill="none" viewBox="0 0 22 22"><defs><clipPath id="a"><path fill="#fff" fill-opacity="0" d="M.5.5h21v21h-21z"/></clipPath></defs><g clip-path="url(#a)"><path stroke="#0266C1" d="M18.07 16.8h-14.15l-2.92-9.69 5.77 3.5 4.23-8.61 4.22 8.61 5.78-3.5zm-.39 3.2h-13.37"/></g></symbol><use xlink:href="#sprite-crown" width="22" height="22" y="82.976"/><view id="sprite-crown-view" viewBox="0 82.976 22 22"/><symbol id="sprite-five-stars" fill="none" viewBox="0 0 84 16"><path fill="#FFF" fill-rule="evenodd" d="m7.63 11.69 4.72 2.6-1.25-4.92 4.16-3.3-5.49-.44-2.14-4.63-2.14 4.63-5.49.44 4.16 3.3-1.25 4.92zm17 0 4.72 2.6-1.25-4.92 4.16-3.3-5.49-.44-2.14-4.63-2.14 4.63-5.49.44 4.16 3.3-1.25 4.92zm17 0 4.72 2.6-1.25-4.92 4.16-3.3-5.49-.44-2.14-4.63-2.14 4.63-5.49.44 4.16 3.3-1.25 4.92zm17 0 4.72 2.6-1.25-4.92 4.16-3.3-5.49-.44-2.14-4.63-2.14 4.63-5.49.44 4.16 3.3-1.25 4.92zm17 0 4.72 2.6-1.25-4.92 4.16-3.3-5.49-.44-2.14-4.63-2.14 4.63-5.49.44 4.16 3.3-1.25 4.92z"/></symbol><use xlink:href="#sprite-five-stars" width="84" height="16" y="104.976"/><view id="sprite-five-stars-view" viewBox="0 104.976 84 16"/><symbol id="sprite-four-stars" fill="none" viewBox="0 0 84 16"><path fill="#FFF" fill-rule="evenodd" d="m7.63 11.69 4.72 2.6-1.25-4.92 4.16-3.3-5.49-.44-2.14-4.63-2.15 4.63-5.48.44 4.16 3.3-1.25 4.92zm17 0 4.72 2.6-1.25-4.92 4.16-3.3-5.49-.44-2.14-4.63-2.15 4.63-5.48.44 4.16 3.3-1.25 4.92zm17 0 4.72 2.6-1.25-4.92 4.16-3.3-5.49-.44-2.14-4.63-2.15 4.63-5.48.44 4.16 3.3-1.25 4.92zm17 0 4.72 2.6-1.25-4.92 4.16-3.3-5.49-.44-2.14-4.63-2.15 4.63-5.48.44 4.16 3.3-1.25 4.92zm17-1.15 3.18 1.76-.84-3.31 2.68-2.13-3.54-.28-1.48-3.2-1.48 3.2-3.54.28 2.68 2.13-.84 3.31zm-4.72 3.75 1.25-4.92-4.16-3.3 5.48-.44 2.15-4.63 2.14 4.63 5.49.44-4.16 3.3 1.25 4.92-4.72-2.6z"/></symbol><use xlink:href="#sprite-four-stars" width="84" height="16" y="120.976"/><view id="sprite-four-stars-view" viewBox="0 120.976 84 16"/><symbol id="sprite-leaf" fill="none" viewBox="0 0 21 15"><path stroke="#0266C1" stroke-linejoin="round" d="M10.19 12.74q.2.88.24 1.75a10.1 10.1 0 0 1-7.76-3.63 9.4 9.4 0 0 1-2.17-5.62c1.46.01 2.92.33 4.27.95a9.8 9.8 0 0 1 5.42 6.55m.37 1.75a10.1 10.1 0 0 0 7.76-3.63 9.5 9.5 0 0 0 2.18-5.62c-1.47.01-2.93.33-4.28.95a9.8 9.8 0 0 0-5.42 6.55q-.2.88-.24 1.75 1.28 0 2.49-.32l-.01.02q-1.21.3-2.49.31l-.12-.01a9.7 9.7 0 0 0-4.26-7.51l.12-.61a9.7 9.7 0 0 1 4.21-5.88 9.7 9.7 0 0 1 4.32 6.49 9.7 9.7 0 0 0-4.02 5.76"/></symbol><use xlink:href="#sprite-leaf" width="21" height="15" y="136.976"/><view id="sprite-leaf-view" viewBox="0 136.976 21 15"/><symbol id="sprite-level" fill="none" viewBox="0 0 10.818 11.909"><path stroke="#FFF" d="M10.31 11.4v-10.9h-1.96v10.9zm-3.92-7.93v7.93h-1.97v-7.93zm-3.93 2.98v4.95h-1.96v-4.95z"/></symbol><use xlink:href="#sprite-level" width="10.818" height="11.909" y="151.976"/><view id="sprite-level-view" viewBox="0 151.976 10.818 11.909"/><symbol id="sprite-logo" viewBox="0 0 142 42"><path fill="inherit" d="m15.73 27.24 3.77-3.88 4.29 3.88h7.34l-11.68-11.24-11.58 11.24z"/><path d="m26.52 9.2-5.56 5.56 3.67 3.7 1.89-1.85 10.31 10.08a16.5 16.5 0 0 1-15.5 10.55c-9.13 0-16.53-7.27-16.53-16.24a16.45 16.45 0 0 1 16.58-16.24c8.1 0 14.89 5.79 16.25 13.33l5 5.18a20.7 20.7 0 0 0-6.12-17.11 21.4 21.4 0 0 0-15.13-6.16 21.4 21.4 0 0 0-15.12 6.15 20.6 20.6 0 0 0-6.26 14.85 20.6 20.6 0 0 0 6.26 14.85 21.4 21.4 0 0 0 15.12 6.15c5.7 0 11.07-2.17 15.12-6.15a20.5 20.5 0 0 0 5.28-8.56c.19-.55.33-1.16.47-1.71l-4.33-4.49zm33.89 4.3h3.15l-1.72 8.46h5.3l-.5 2.45h-8.45zm9.69 0h3.15l-2.22 10.91h-3.15zm8.04 2.38-.5 2.4h4.91l-.49 2.39h-4.89l-.76 3.74h-3.15l2.23-10.92h8.7l-.5 2.4zm10.14 0-.36 1.84h4.93l-.46 2.31h-4.95l-.4 2h5.83l-.5 2.38h-8.92l2.23-10.92h8.7l-.5 2.4zm9.92.06h-3.41l.5-2.45h9.97l-.51 2.45h-3.4l-1.73 8.47h-3.15zm11.85 8.69q-1.68 0-2.94-.6a4.6 4.6 0 0 1-1.92-1.7 4.7 4.7 0 0 1-.66-2.5 6.2 6.2 0 0 1 3.34-5.7 7.6 7.6 0 0 1 3.6-.85q1.69 0 2.92.6a4.5 4.5 0 0 1 2.6 4.2 6.5 6.5 0 0 1-.89 3.37q-.87 1.5-2.46 2.34a7.5 7.5 0 0 1-3.59.84m.27-2.56a3.3 3.3 0 0 0 3.07-1.88 4 4 0 0 0 .43-1.92 2.3 2.3 0 0 0-.7-1.77 2.6 2.6 0 0 0-1.92-.67 3.3 3.3 0 0 0-3.07 1.9 4 4 0 0 0-.43 1.91q0 1.1.69 1.78.69.65 1.93.65m12.58 2.56q-1.45 0-2.5-.47a3.6 3.6 0 0 1-1.6-1.37 4 4 0 0 1-.56-2.09q0-.5.13-1.15l1.24-6.06h3.14l-1.22 6q-.1.47-.1.87 0 1.71 1.85 1.71 1 0 1.57-.59.6-.6.87-1.98l1.23-6h3.1l-1.26 6.19q-1.02 4.95-5.9 4.94Zm18.52-7.66q0 1.5-.81 2.6a4.6 4.6 0 0 1-2.28 1.57l1.9 3.27h-3.3l-1.64-2.9h-1.6l-.58 2.9h-3.14l2.22-10.92h4.75q2.13 0 3.3.92a3 3 0 0 1 1.18 2.56m-3.18.3q0-.67-.46-1a2 2 0 0 0-1.29-.34h-1.65l-.67 3.2h1.88q1.05 0 1.62-.49c.57-.49.57-.78.57-1.37m-77.96 17.43q-.57 0-1.04-.24a2 2 0 0 1-.73-.7 2 2 0 0 1-.26-.98 1.9 1.9 0 0 1 .99-1.68q.47-.26 1.04-.26c.57 0 .73.09 1.03.25a1.9 1.9 0 0 1 1 1.68 1.9 1.9 0 0 1-1 1.68q-.45.26-1.03.26Zm0-.35q.45 0 .83-.2a1.5 1.5 0 0 0 .79-1.38q0-.45-.21-.8a1.5 1.5 0 0 0-.58-.56q-.37-.2-.83-.2t-.83.2a1.5 1.5 0 0 0-.8 1.36q0 .45.21.81.22.36.59.57.38.2.83.2m4.41-2.55q.4 0 .74.18a1.3 1.3 0 0 1 .7 1.27 1.3 1.3 0 0 1-.7 1.27q-.33.18-.74.18a1.2 1.2 0 0 1-1.1-.56v1.59h-.4v-3.91h.38v.56q.17-.27.46-.43t.66-.15m-.03 2.56q.3 0 .55-.14t.39-.4.14-.57q0-.33-.14-.58a1 1 0 0 0-.39-.4 1 1 0 0 0-.55-.14q-.31 0-.56.15a1 1 0 0 0-.38.4q-.15.24-.14.57a1.1 1.1 0 0 0 .52.98q.25.13.56.13m4.37-2.2h-1.66v2.51h-.4v-2.85h2.06zm1.57-.36q.57 0 .87.28t.3.83v1.76h-.37v-.44a1 1 0 0 1-.4.35q-.24.12-.6.12-.48 0-.77-.23a.7.7 0 0 1-.29-.6q0-.36.26-.59.28-.22.86-.22h.92v-.17q0-.37-.2-.56a1 1 0 0 0-.62-.2 1.5 1.5 0 0 0-.97.34l-.17-.29a2 2 0 0 1 1.18-.38m-.14 2.6q.33 0 .57-.15.24-.16.35-.43v-.47h-.9q-.75 0-.75.51 0 .25.19.4.19.14.54.14m2.36-2.58h.4v1.26h1.82v-1.26h.4v2.85h-.4v-1.25h-1.83v1.25h-.39zm3.73 0h.39v2.27l1.94-2.27h.35v2.85h-.4v-2.26l-1.93 2.26h-.35zm5.15 1.37a1 1 0 0 1 .48.24.6.6 0 0 1 .17.42q0 .26-.17.45-.18.2-.47.3a2.2 2.2 0 0 1-1.28.02q-.3-.09-.53-.27l.13-.28a2 2 0 0 0 1 .3q.4 0 .66-.14c.26-.14.26-.24.26-.4a.4.4 0 0 0-.21-.36 1 1 0 0 0-.58-.13h-.5v-.28h.48q.33 0 .53-.12.2-.14.2-.33 0-.23-.23-.36a1 1 0 0 0-.58-.13q-.46 0-.93.23l-.1-.3q.51-.26 1.07-.26.33 0 .6.1a1 1 0 0 1 .41.26q.16.18.16.4c0 .22-.05.28-.16.39q-.15.17-.4.25Zm2.54-1.39q.57 0 .87.28t.3.83v1.76h-.37v-.44a1 1 0 0 1-.39.35 1.4 1.4 0 0 1-.6.12q-.5 0-.78-.23a.7.7 0 0 1-.29-.6q0-.36.27-.59t.85-.22h.93v-.17q0-.37-.21-.56c-.21-.19-.35-.2-.62-.2a1.5 1.5 0 0 0-.96.34l-.18-.29a2 2 0 0 1 1.18-.38m-.14 2.6q.34 0 .57-.15a.8.8 0 0 0 .36-.43v-.47h-.92q-.75 0-.74.51 0 .25.2.4.18.14.53.14m5.39-.06v1.05h-.37v-.72h-2.66v-2.85h.4v2.52h1.77v-2.52h.39v2.52zm.75-2.52h.4v2.27l1.93-2.27h.35v2.85h-.4v-2.26l-1.93 2.26h-.35zm6.03 0v2.85h-.36v-.94h-1.02l-.67.94h-.43l.73-1a1 1 0 0 1-.52-.3 1 1 0 0 1-.18-.57q0-.48.33-.73t.9-.25zm-2.06.99q0 .63.83.63h.87v-1.28h-.85q-.84 0-.85.65m7.23-.99v2.85h-.39v-2.5h-1.82v2.5h-.4v-2.85zm2.32 2.88a1.4 1.4 0 0 1-1.48-1.45q0-.42.2-.75.19-.34.52-.52.34-.18.76-.18c.42 0 .53.06.76.18a1.5 1.5 0 0 1 .72 1.27 1.5 1.5 0 0 1-.72 1.27 2 2 0 0 1-.76.18m0-.34q.3 0 .55-.14t.39-.4.14-.57q0-.33-.14-.58a1 1 0 0 0-.39-.4 1 1 0 0 0-.55-.14q-.31 0-.56.15a1 1 0 0 0-.39.39 1 1 0 0 0-.13.58q0 .31.13.58.15.25.4.4.24.13.55.13m4.03.31-.93-1.19-.92 1.2h-.44l1.14-1.47-1.09-1.39h.44l.88 1.12.87-1.12h.43l-1.1 1.39 1.16 1.46zm2.18.03a1.4 1.4 0 0 1-1.48-1.45 1.5 1.5 0 0 1 .73-1.27q.33-.18.75-.18c.42 0 .54.06.76.18a1.5 1.5 0 0 1 .72 1.26 1.5 1.5 0 0 1-.72 1.28q-.33.18-.76.18m0-.34q.32 0 .56-.14t.38-.4q.15-.25.14-.57 0-.33-.14-.58a1 1 0 0 0-.38-.4 1 1 0 0 0-.56-.14q-.3 0-.55.15a1 1 0 0 0-.4.39 1.3 1.3 0 0 0 .01 1.16q.14.25.39.4.24.13.55.13m5.13-.02v1.02h-.37v-.69h-2.6v.7h-.37v-1.03h.17q.3-.01.4-.43.1-.4.14-1.13l.04-.96h2.14v2.52zm-2.27-1.54q-.03.6-.1 1-.09.39-.28.54h1.8v-2.18h-1.39zm4.24 1.9a1.4 1.4 0 0 1-1.48-1.45q0-.42.19-.75c.19-.33.3-.4.53-.52q.33-.18.76-.18c.43 0 .53.06.75.18a1.5 1.5 0 0 1 .73 1.27q0 .41-.2.75-.19.33-.53.52-.33.18-.75.18m0-.34q.3 0 .55-.14t.39-.4q.13-.25.13-.57 0-.33-.13-.58a1 1 0 0 0-.39-.4 1.1 1.1 0 0 0-1.11.01 1 1 0 0 0-.39.39 1.3 1.3 0 0 0 0 1.16q.15.25.39.4.24.13.56.13m4.16-1.16q.6.13.6.7 0 .38-.29.57-.28.2-.84.2h-1.32v-2.85h1.28q.5 0 .78.19t.28.54q0 .24-.13.4t-.36.25m-1.47-.11h.88q.33 0 .5-.13a.4.4 0 0 0 .2-.36.4.4 0 0 0-.2-.36 1 1 0 0 0-.5-.12h-.88zm.92 1.28q.38 0 .57-.12t.19-.37c0-.25-.06-.3-.18-.38q-.16-.12-.54-.12h-.96v.99zm5.36-1.17q.6.13.59.7 0 .38-.28.57-.3.2-.84.2h-1.32v-2.85h1.28q.5 0 .78.19c.28.19.28.3.28.54q0 .24-.13.4t-.36.25m-1.47-.11h.87q.34 0 .52-.13a.4.4 0 0 0 .18-.36.4.4 0 0 0-.19-.36 1 1 0 0 0-.5-.12h-.88zm.92 1.28q.38 0 .56-.12a.4.4 0 0 0 .2-.37q0-.26-.18-.38t-.54-.12h-.96v.99zm5.56-2.21h-1.66v2.51h-.4v-2.85h2.06zm1.63 2.54a1.4 1.4 0 0 1-1.48-1.45q0-.42.2-.75.19-.33.52-.52.34-.18.76-.18c.42 0 .53.06.76.18a1.5 1.5 0 0 1 .72 1.26 1.5 1.5 0 0 1-.72 1.28 2 2 0 0 1-.76.18m0-.34q.3 0 .55-.14t.39-.4.14-.57q0-.33-.14-.58a1 1 0 0 0-.39-.4 1 1 0 0 0-.55-.14q-.31 0-.56.15a1 1 0 0 0-.38.39q-.14.25-.14.58 0 .31.14.58.14.25.38.4.25.13.56.13m3.81-2.56q.4 0 .74.18c.34.18.4.3.52.51a1.6 1.6 0 0 1-.01 1.52q-.18.33-.51.51a1.5 1.5 0 0 1-.74.18 1.2 1.2 0 0 1-1.1-.56v1.59h-.4v-3.91h.38v.56q.18-.28.46-.43.3-.15.66-.15m-.03 2.56q.3 0 .55-.14a1 1 0 0 0 .53-.97q0-.33-.14-.58a1 1 0 0 0-.39-.4 1 1 0 0 0-.55-.14q-.3 0-.56.15a1 1 0 0 0-.38.4 1.3 1.3 0 0 0 0 1.15q.14.25.38.4.26.13.56.13m3.54-1.53q.55 0 .83.24.3.23.3.67t-.32.7q-.3.24-.88.24h-1.15v-2.86h.4v1h.82Zm1.6-1.01h.4v2.85h-.4zm-1.7 2.57q.42 0 .61-.16.21-.17.21-.49 0-.3-.2-.47-.2-.15-.61-.15l-.74-.01v1.27h.74Z"/></symbol><use xlink:href="#sprite-logo" width="142" height="42" y="163.885"/><view id="sprite-logo-view" viewBox="0 163.885 142 42"/><symbol id="sprite-mail" fill="none" viewBox="0 0 24.636 17.546"><path stroke="#2D383F" stroke-linejoin="round" d="M22.44.5c.94 0 1.69.82 1.69 1.83v12.87c0 1.02-.75 1.84-1.69 1.84h-20.26c-.93 0-1.68-.82-1.68-1.84v-12.87c0-1.01.75-1.83 1.68-1.83zm1.69 1.83-9.62 8.98a3.16 3.16 0 0 1-4.39 0l-9.62-8.98"/></symbol><use xlink:href="#sprite-mail" width="24.636" height="17.546" y="205.885"/><view id="sprite-mail-view" viewBox="0 205.885 24.636 17.546"/><symbol id="sprite-map" fill="none" viewBox="0 0 23.341 25"><path fill="#2D383F" fill-rule="evenodd" d="M23.34 6.7v15.58c.01.21-.13.4-.33.46l-7.14 2.23q-.15.05-.3 0l-7.96-2.85-6.99 2.7a.45.45 0 0 1-.62-.43v-15.6a.4.4 0 0 1 .29-.38l7.15-2.78.16-.04h.16l3.44 1.24a6 6 0 0 1-.35-1.74 5.1 5.1 0 0 1 10.18 0 6 6 0 0 1-.38 1.82l2.08-.65v-.03l.16-.02c.26.01.46.23.45.49m-3.23-1.61a4.17 4.17 0 0 0-8.34 0c0 1.79 2.72 6.79 4.17 9.26 1.45-2.45 4.17-7.45 4.17-9.26m-6.88 0a2.7 2.7 0 1 1 5.38 0 2.7 2.7 0 0 1-5.38 0m.95 0a1.76 1.76 0 1 0 3.51 0 1.77 1.77 0 1 0-3.53 0zm2.01 18.82 6.23-1.95v-6.07l-2.12.52h-.11a.46.46 0 1 1-.11-.92l2.34-.57-.01-7.59-2.17.68a65 65 0 0 1-3.91 7.51.4.4 0 0 1-.15.15.46.46 0 0 1-.64-.15 65 65 0 0 1-3.92-7.56l-3.55-1.27v1.4c0 .26-.21.47-.47.47a.47.47 0 0 1-.46-.47v-1.38l-6.22 2.4v6.45l1.95-.78a.46.46 0 0 1 .65.28c.07.24-.07.5-.31.57l-2.29.93v7.16l6.22-2.42v-2.97a.47.47 0 0 1 .93 0v2.97l7.19 2.57v-3.5a.47.47 0 0 1 .93 0zm-6.33-9.95v.02l-2.24-.97a.4.4 0 0 0-.35 0l-1.9.76a.5.5 0 0 0-.26.61c.1.23.37.35.61.25l1.71-.69 2.06.87a.47.47 0 0 0 .66-.42.5.5 0 0 0-.29-.43m7.05 2.33c.23-.04.46.1.53.32.07.25-.07.5-.31.58l-1.3.32h-.11q-.09 0-.18-.04l-2.09-.93a.47.47 0 0 1-.24-.61c.1-.23.38-.34.61-.24l1.95.84 1.15-.28z"/></symbol><use xlink:href="#sprite-map" width="23.341" height="25" y="223.43099999999998"/><view id="sprite-map-view" viewBox="0 223.43099999999998 23.341 25"/><symbol id="sprite-menu" fill="none" viewBox="0 0 26 26"><path fill="#fff" d="M0 3.55h26v2.17h-26zm0 16.73h26v2.17h-26zm0-8.37h16.64v2.18h-16.64z"/></symbol><use xlink:href="#sprite-menu" width="26" height="26" y="248.43099999999998"/><view id="sprite-menu-view" viewBox="0 248.43099999999998 26 26"/><symbol id="sprite-moon-big" fill="none" viewBox="0 0 16 16"><path fill="#FFF" fill-rule="evenodd" d="M15.62 9.1a.6.6 0 0 0-.47.1 6 6 0 0 1-3.89 1.44 6 6 0 0 1-6.01-6.03 6 6 0 0 1 1.31-3.76.54.54 0 0 0-.08-.74.6.6 0 0 0-.47-.1 8.18 8.18 0 0 0-3.64 13.6 8.03 8.03 0 0 0 10.73.64 8 8 0 0 0 2.86-4.49c.11-.31-.06-.6-.34-.66m-3.13 4.29a7.01 7.01 0 0 1-11.39-5.54 7 7 0 0 1 3.8-6.26q-.16.34-.28.7a7.1 7.1 0 0 0 6.66 9.42q1.3 0 2.44-.43.4-.16.77-.33a7.5 7.5 0 0 1-2 2.44"/></symbol><use xlink:href="#sprite-moon-big" width="16" height="16" y="274.431"/><view id="sprite-moon-big-view" viewBox="0 274.431 16 16"/><symbol id="sprite-moon" fill="none" viewBox="0 0 12 12"><defs><clipPath id="a"><path fill="#fff" fill-opacity="0" d="M.5.5h11v11h-11z"/></clipPath></defs><g clip-path="url(#a)"><path fill="#FFF" fill-rule="evenodd" d="M11.19 6.75a.4.4 0 0 0-.32.07 4.06 4.06 0 0 1-5.55-.22 4.14 4.14 0 0 1-.3-5.48.36.36 0 0 0-.06-.5.4.4 0 0 0-.32-.07 5.54 5.54 0 1 0 4.84 9.71 5.5 5.5 0 0 0 1.95-3.06c.07-.21-.04-.41-.24-.45m-2.13 2.92a4.7 4.7 0 0 1-6.36-.38 4.8 4.8 0 0 1 1.19-7.66l-.2.47a4.83 4.83 0 0 0 4.55 6.43 4.5 4.5 0 0 0 2.18-.52 5 5 0 0 1-1.36 1.66"/></g></symbol><use xlink:href="#sprite-moon" width="12" height="12" y="290.431"/><view id="sprite-moon-view" viewBox="0 290.431 12 12"/><symbol id="sprite-mountains" fill="none" viewBox="0 0 25 24.703"><path fill="#2D383F" fill-rule="evenodd" d="M23.69 2.24v.25a2.2 2.2 0 0 1 1.3 2 2.24 2.24 0 0 1-2.2 2.29h-3.34a2.68 2.68 0 0 1-.1-5.37 2.2 2.2 0 0 1 2.08-1.41 2.24 2.24 0 0 1 2.26 2.24m-16.08-.31a2.26 2.26 0 0 0-4.36.8v.25a2.26 2.26 0 0 0 .91 4.3l.03.01h3.33a2.68 2.68 0 1 0 .09-5.36m15.19 3.89a1.3 1.3 0 0 0 .25-2.57l-.06-.01a.5.5 0 0 1-.3-.61l.06-.21a1.3 1.3 0 0 0-2.56-.43.46.46 0 0 1-.51.37h-.22a1.73 1.73 0 0 0 0 3.46zm-15.25.53h-3.34a1.3 1.3 0 0 1-1.42-1.15 1.3 1.3 0 0 1 1.16-1.43c.25-.05.42-.3.37-.56l-.02-.06a1.3 1.3 0 1 1 2.51-.64c.04.25.28.42.53.39h.21a1.72 1.72 0 1 1 0 3.45m15.86 17.68-7.86-18.28a.47.47 0 0 0-.87 0l-4.75 11.01-2.93-6.76a.47.47 0 0 0-.62-.25.5.5 0 0 0-.25.25l-2.76 6.36-3.33 7.67c-.11.24 0 .52.24.63l.19.04h22.5c.26 0 .48-.22.48-.48a.4.4 0 0 0-.04-.19m-8.3-16.89 3.1 7.2h-1.09l-1.97-2.17a.47.47 0 0 0-.67-.03l-.08.09-.74 1.14h-1.23zm-8.54 4.24 2.44 5.66h-1.33a.5.5 0 0 0-.4.22l-.48.75-1.23-1.73a.5.5 0 0 0-.39-.21h-.64zm6.38 12.36-2.5-5.77 1.57-3.65h1.91q.25 0 .4-.22l.53-.81 1.69 1.86q.14.15.35.16h1.71l3.63 8.45zm-11.73 0 2.91-6.71h.8l1.49 2.12q.14.2.39.2c.25 0 .3-.08.39-.21l.73-1.14h1.49l2.49 5.72z"/></symbol><use xlink:href="#sprite-mountains" width="25" height="24.703" y="302.431"/><view id="sprite-mountains-view" viewBox="0 302.431 25 24.703"/><symbol id="sprite-ok" fill="none" viewBox="0 0 9 16"><path fill="#2D383F" fill-rule="evenodd" d="M4.5 2.41c.91 0 1.66.77 1.66 1.72 0 .94-.75 1.7-1.66 1.7-.92 0-1.67-.76-1.67-1.7 0-.95.75-1.72 1.67-1.72m0 5.84a4.07 4.07 0 0 0 4.01-4.12c0-2.28-1.8-4.13-4.01-4.13a4.07 4.07 0 0 0-4.01 4.13 4.07 4.07 0 0 0 4.01 4.12m1.62 3.37q1.23-.29 2.33-.99c.54-.36.71-1.1.36-1.67a1.15 1.15 0 0 0-1.62-.38 5 5 0 0 1-5.4 0 1.14 1.14 0 0 0-1.61.38c-.35.57-.18 1.31.36 1.67q1.1.7 2.33.99l-2.24 2.31a1.23 1.23 0 0 0 0 1.71q.36.35.83.35c.47 0 .6-.12.83-.35l2.21-2.27 2.2 2.27c.46.47 1.2.47 1.66 0s.46-1.24 0-1.71z"/></symbol><use xlink:href="#sprite-ok" width="9" height="16" y="327.13399999999996"/><view id="sprite-ok-view" viewBox="0 327.13399999999996 9 16"/><symbol id="sprite-path" fill="none" viewBox="0 0 21 21"><path stroke="#0266C1" stroke-linecap="round" d="M17.64 8.26h-5.36a3.04 3.04 0 0 0-3.03 3.06 3.04 3.04 0 0 0 3.03 3.06h2.32a3.05 3.05 0 0 1 3.04 3.06 3.05 3.05 0 0 1-3.04 3.06h-11.25m0-7.95a2.86 2.86 0 0 0-2.85 2.88v.1a3 3 0 0 0 .56 1.76l2.29 3.16h.01l2.28-3.16a3 3 0 0 0 .57-1.76v-.1a2.87 2.87 0 0 0-2.86-2.88Zm.57 1.7a1.26 1.26 0 0 1 .44 1.94c-.24.3-.61.47-.99.47h-.03c-.39 0-.75-.17-.99-.47-.25-.3-.34-.71-.25-1.09.08-.37.34-.69.68-.85l.02-.01c.35-.17.75-.17 1.1 0zm13.72-13.75a2.9 2.9 0 0 0-2.86 2.89c0 .63.2 1.24.57 1.74l2.28 3.09h.01l2.28-3.09a2.88 2.88 0 0 0-2.28-4.63Zm.58 1.66c.34.16.58.47.67.83.09.37 0 .77-.25 1.06l-.01.01c-.24.29-.59.46-.96.46h-.07c-.37 0-.72-.17-.96-.46l-.01-.01a1.3 1.3 0 0 1-.25-1.06c.09-.36.34-.67.67-.83l.04-.01a1.3 1.3 0 0 1 1.09 0z"/></symbol><use xlink:href="#sprite-path" width="21" height="21" y="343.13399999999996"/><view id="sprite-path-view" viewBox="0 343.13399999999996 21 21"/><symbol id="sprite-phone" fill="none" viewBox="0 0 24.654 24.654"><path stroke="#2D383F" stroke-linejoin="round" d="M19.1 23.99a22 22 0 0 1-12.22-6.25 22.4 22.4 0 0 1-6.23-12.27l-.14-1.07a2 2 0 0 1 1.11-2l3.26-1.66c1.25-.64 2.78.11 3.22 1.45a22 22 0 0 0 1.53 3.57c.49.9.16 2.06-.77 2.48a2.14 2.14 0 0 0-.62 3.45l4.67 4.69a2.1 2.1 0 0 0 3.43-.63 1.9 1.9 0 0 1 2.61-.85l.7.35q1.35.63 2.76 1.07c1.37.43 2.14 1.97 1.49 3.25l-1.74 3.44a2 2 0 0 1-1.99 1.12q-.54-.05-1.07-.14Z"/></symbol><use xlink:href="#sprite-phone" width="24.654" height="24.654" y="364.13399999999996"/><view id="sprite-phone-view" viewBox="0 364.13399999999996 24.654 24.654"/><symbol id="sprite-pin-contacts" fill="none" viewBox="0 0 18.727 24.637"><path stroke="#2D383F" stroke-linejoin="round" d="M.5 8.94c0-4.66 3.96-8.44 8.86-8.44s8.86 3.78 8.86 8.44v.51c0 1.87-.61 3.69-1.75 5.21l-7.09 9.46h-.04l-7.09-9.46a8.7 8.7 0 0 1-1.75-5.21zm7.13-3.38c1.09-.5 2.37-.5 3.46 0a3.9 3.9 0 0 1 2.16 2.59 3.7 3.7 0 0 1-.77 3.22 4.1 4.1 0 0 1-6.24 0 3.7 3.7 0 0 1-.77-3.22 3.9 3.9 0 0 1 2.16-2.59Z"/></symbol><use xlink:href="#sprite-pin-contacts" width="18.727" height="24.637" y="388.78799999999995"/><view id="sprite-pin-contacts-view" viewBox="0 388.78799999999995 18.727 24.637"/><symbol id="sprite-pin" fill="none" viewBox="0 0 9 12"><path fill="#FFF" fill-rule="evenodd" d="M4.5 0a4.46 4.46 0 0 0-4.5 4.41q0 .96.39 1.81a27 27 0 0 0 3.92 5.69q.07.08.19.09t.18-.09c.64-.72 2.8-3.28 3.92-5.69q.4-.84.4-1.81a4.47 4.47 0 0 0-4.5-4.41m0 6.71a2.3 2.3 0 0 1-2.34-2.3 2.3 2.3 0 0 1 2.34-2.29 2.3 2.3 0 0 1 2.33 2.29c0 1.27-1.05 2.3-2.33 2.3"/></symbol><use xlink:href="#sprite-pin" width="9" height="12" y="413.42499999999995"/><view id="sprite-pin-view" viewBox="0 413.42499999999995 9 12"/><symbol id="sprite-reddit" fill="none" viewBox="0 0 14 15"><path fill="#2D383F" fill-rule="evenodd" d="M8.36 0c-.45 0-.87.24-1.14.59s-.42.78-.53 1.23c-.17.73-.23 1.54-.24 2.26-1.26.09-2.4.5-3.35 1.11a2 2 0 0 0-1.3-.53c-.5 0-.98.24-1.34.72-.68.92-.61 2.42.19 3.31a5 5 0 0 0-.09.84c0 3.02 2.88 5.47 6.44 5.47 3.55 0 6.43-2.45 6.43-5.47q0-.43-.09-.84c.8-.89.87-2.39.19-3.31a1.7 1.7 0 0 0-1.34-.72c-.45-.01-.91.19-1.3.53a7 7 0 0 0-3.33-1.11c.01-.67.06-1.36.18-1.89q.13-.49.28-.69c.1-.14.17-.19.34-.19.36 0 .41.13.63.43q.14.25.44.54c.2.18.51.34.83.34v-1.31c-.09 0-.11 0-.17-.06s-.14-.2-.27-.37c-.25-.35-.74-.88-1.46-.88m3.54.12c-.85 0-1.53.83-1.53 1.85s.68 1.85 1.53 1.85c.84 0 1.53-.83 1.53-1.85s-.69-1.85-1.53-1.85m0 .66c.54 0 .98.53.98 1.19s-.44 1.19-.98 1.19c-.55 0-.99-.54-.99-1.19 0-.66.44-1.19.99-1.19m-4.9 4.33c3.01 0 5.56 2.03 5.56 4.42s-2.55 4.42-5.56 4.42c-3.02 0-5.57-2.03-5.57-4.42s2.55-4.42 5.57-4.42m-5.18.6q.23 0 .46.12-.83.75-1.28 1.73c-.2-.51-.15-1.15.11-1.48a.8.8 0 0 1 .71-.37m10.35 0q.43-.01.71.37c.26.33.31.97.11 1.48a5 5 0 0 0-1.28-1.73 1 1 0 0 1 .46-.12m-7.35 1.64c-.55 0-.99.54-.99 1.19 0 .66.44 1.19.99 1.19.54 0 .98-.53.98-1.19s-.44-1.19-.98-1.19m4.35 0c-.54 0-.98.54-.98 1.19 0 .66.44 1.19.98 1.19.55 0 .99-.53.99-1.19s-.44-1.19-.99-1.19m-4.88 4.05a3.02 3.02 0 0 0 5.43 0c-.63.49-1.62.82-2.72.82a4.5 4.5 0 0 1-2.71-.82"/></symbol><use xlink:href="#sprite-reddit" width="14" height="15" y="425.42499999999995"/><view id="sprite-reddit-view" viewBox="0 425.42499999999995 14 15"/><symbol id="sprite-shield" fill="none" viewBox="0 0 19 21.123"><path stroke="#0266C1" d="M1.94 2.37q-.53 0-1.06-.03a16.44 16.44 0 0 0 8.62 18.22 16.44 16.44 0 0 0 8.61-18.22 16.6 16.6 0 0 1-8.61-1.78 17 17 0 0 1-7.56 1.81Zm5.31 8.1 2.25 2.24 3.93-3.92"/></symbol><use xlink:href="#sprite-shield" width="19" height="21.123" y="440.42499999999995"/><view id="sprite-shield-view" viewBox="0 440.42499999999995 19 21.123"/><symbol id="sprite-sun" fill="none" viewBox="0 0 20 20"><path fill="#FFF" fill-rule="evenodd" d="M10 0a.7.7 0 0 0-.69.68v2.04c0 .37.31.69.69.69a.7.7 0 0 0 .68-.69v-2.04a.7.7 0 0 0-.68-.68m-4.69 4.39-1.45-1.46a.68.68 0 0 0-1.15.48q0 .26.2.47l1.45 1.46a.68.68 0 0 0 1.15-.48.7.7 0 0 0-.2-.47m11.77-1.46a.7.7 0 0 0-.95 0l-1.45 1.46a.67.67 0 0 0 0 .95c.24.26.69.26.95 0l1.45-1.46q.2-.2.2-.47a.7.7 0 0 0-.2-.48m-3.54 3.52a5 5 0 0 0-3.54-1.48 5.04 5.04 0 0 0-5.03 5.03 5.04 5.04 0 0 0 8.57 3.54c.9-.9 1.48-2.17 1.48-3.54s-.55-2.65-1.48-3.55m-.95 6.14a3.7 3.7 0 0 1-2.59 1.06c-1.01 0-1.94-.4-2.6-1.06a3.7 3.7 0 0 1-1.06-2.59c0-1.01.4-1.94 1.06-2.6a3.7 3.7 0 0 1 2.6-1.06c1 0 1.93.4 2.59 1.06a3.7 3.7 0 0 1 1.06 2.6c0 1-.4 1.93-1.06 2.59m-9.87-3.28h-2.04a.7.7 0 0 0-.68.69c0 .37.29.68.68.68h2.04a.7.7 0 0 0 .69-.68.7.7 0 0 0-.69-.69m16.59 0h-2.04a.7.7 0 0 0-.69.69c0 .37.32.68.69.68h2.04a.7.7 0 0 0 .69-.68.7.7 0 0 0-.69-.69m-14 5.34c-.24-.26-.69-.26-.95 0l-1.45 1.46q-.2.2-.2.47a.68.68 0 0 0 1.15.48l1.45-1.46a.67.67 0 0 0 0-.95m11.75 1.46-1.46-1.46c-.23-.26-.68-.26-.95 0a.67.67 0 0 0 0 .95l1.46 1.46a.68.68 0 0 0 1.15-.48.7.7 0 0 0-.2-.47m-7.06.47a.7.7 0 0 0-.69.69v2.04c0 .37.31.69.69.69a.7.7 0 0 0 .68-.69v-2.04a.7.7 0 0 0-.68-.69"/></symbol><use xlink:href="#sprite-sun" width="20" height="20" y="461.54799999999994"/><view id="sprite-sun-view" viewBox="0 461.54799999999994 20 20"/><symbol id="sprite-three-stars" fill="none" viewBox="0 0 84 16"><path fill="#FFF" fill-rule="evenodd" d="m7.63 11.69 4.72 2.6-1.25-4.92 4.16-3.3-5.49-.44-2.14-4.63-2.15 4.63-5.48.44 4.16 3.3-1.25 4.92zm17 0 4.72 2.6-1.25-4.92 4.16-3.3-5.49-.44-2.14-4.63-2.15 4.63-5.48.44 4.16 3.3-1.25 4.92zm17 0 4.72 2.6-1.25-4.92 4.16-3.3-5.49-.44-2.14-4.63-2.15 4.63-5.48.44 4.16 3.3-1.25 4.92zm17-1.15 3.18 1.76-.84-3.31 2.68-2.13-3.54-.28-1.48-3.2-1.48 3.2-3.54.28 2.68 2.13-.84 3.31zm-4.72 3.75 1.25-4.92-4.16-3.3 5.48-.44 2.15-4.63 2.14 4.63 5.49.44-4.16 3.3 1.25 4.92-4.72-2.6zm21.72-3.75 3.18 1.76-.84-3.31 2.68-2.13-3.54-.28-1.48-3.2-1.48 3.2-3.54.28 2.68 2.13-.84 3.31zm-4.72 3.75 1.25-4.92-4.16-3.3 5.48-.44 2.15-4.63 2.14 4.63 5.49.44-4.16 3.3 1.25 4.92-4.72-2.6z"/></symbol><use xlink:href="#sprite-three-stars" width="84" height="16" y="481.54799999999994"/><view id="sprite-three-stars-view" viewBox="0 481.54799999999994 84 16"/><symbol id="sprite-trees" fill="none" viewBox="0 0 24.434 25"><path fill="#2D383F" fill-rule="evenodd" d="m24.3 18.08-4.9-5.62h2.37a.5.5 0 0 0 .5-.5.5.5 0 0 0-.11-.3l-3.94-5.18h2.01a.5.5 0 0 0 .5-.5.5.5 0 0 0-.13-.33l-4.82-5.49a.5.5 0 0 0-.7-.04l-.05.04-4.82 5.48a.5.5 0 0 0 .03.71q.15.13.34.13h2.03l-1.21 1.58-3.25-3.69a.5.5 0 0 0-.71-.04l-.04.04-4.13 4.69a.5.5 0 0 0 .05.7.5.5 0 0 0 .33.13h1.59l-3.3 4.31a.5.5 0 0 0 .11.7q.12.1.29.1h1.85l-4.07 4.69a.5.5 0 0 0 .37.82h5.54v3.51c0 .54.44.98.98.98h1.53c.53 0 .97-.44.97-.97v-3.52h4.16v3.51c0 .54.44.98.98.98h1.52c.54 0 .98-.44.98-.98v-5.11h6.78a.5.5 0 0 0 .5-.5.5.5 0 0 0-.13-.33m-15.79 5.91-1.47.03-.03-3.51h1.5zm5.16-4.48h-12.08l4.1-4.67a.5.5 0 0 0-.03-.71.5.5 0 0 0-.35-.13h-1.96l3.3-4.32a.5.5 0 0 0-.39-.8h-1.51l3.01-3.43 3.01 3.42-2.12 2.79a.5.5 0 0 0 .09.71q.14.1.31.1h2.37l-4.9 5.61a.5.5 0 0 0 .04.71q.14.12.33.13h6.78zm2.47 4.47-1.46.04-.03-5.11h1.5zm.03-6.07h-8.18l4.91-5.62a.5.5 0 0 0-.04-.7.5.5 0 0 0-.33-.13h-2.47l3.96-5.18a.5.5 0 0 0-.1-.7.5.5 0 0 0-.29-.1h-1.92l3.72-4.22 3.7 4.22h-1.94a.5.5 0 0 0-.5.5q0 .17.11.3l3.93 5.18h-2.44a.5.5 0 0 0-.5.5q0 .2.12.33l4.91 5.62z"/></symbol><use xlink:href="#sprite-trees" width="24.434" height="25" y="497.54799999999994"/><view id="sprite-trees-view" viewBox="0 497.54799999999994 24.434 25"/><symbol id="sprite-vk" fill="none" viewBox="0 0 16 9"><path fill="#2D383F" fill-rule="evenodd" d="M15.85 8.02c-.04-.07-.31-.64-1.59-1.81-1.34-1.23-1.16-1.03.46-3.15.98-1.29 1.37-2.08 1.25-2.42-.12-.32-.84-.23-.84-.23l-2.4.01s-.18-.02-.32.06c-.12.07-.21.25-.21.25s-.38 1-.89 1.85c-1.07 1.79-1.5 1.89-1.67 1.78-.41-.26-.31-1.05-.31-1.6 0-1.74.27-2.47-.52-2.65-.26-.06-.45-.11-1.12-.11-.86-.01-1.59 0-2 .2-.27.13-.48.42-.35.44.16.02.52.1.71.35.24.33.24 1.08.24 1.08s.14 2.04-.34 2.3c-.32.17-.77-.18-1.72-1.81-.49-.83-.86-1.76-.86-1.76s-.07-.17-.2-.26a1 1 0 0 0-.37-.15l-2.28.02s-.35.01-.47.15-.01.41-.01.41 1.79 4.12 3.81 6.2c1.86 1.91 3.97 1.79 3.97 1.79h.96s.29-.03.44-.19c.13-.15.13-.42.13-.42s-.02-1.26.57-1.45 1.35 1.23 2.14 1.77c.61.41 1.07.32 1.07.32l2.13-.03s1.12-.07.59-.94"/></symbol><use xlink:href="#sprite-vk" width="16" height="9" y="522.548"/><view id="sprite-vk-view" viewBox="0 522.548 16 9"/></svg>